<?xml version="1.0" standalone="no"?><!DOCTYPE svg PUBLIC "-//W3C//DTD SVG 1.1//EN" "http://www.w3.org/Graphics/SVG/1.1/DTD/svg11.dtd"><svg t="1750592610199" class="icon" viewBox="0 0 1024 1024" version="1.1" xmlns="http://www.w3.org/2000/svg" p-id="32748" data-spm-anchor-id="a313x.search_index.0.i9.7ecd3a816CG0Ib" xmlns:xlink="http://www.w3.org/1999/xlink" width="200" height="200"><path d="M937.79968 461.83936c-23.05024 0-43.97568 9.14432-59.43808 23.94624l-196.23936-172.09344a85.67808 85.67808 0 0 0 10.55232-41.27744c0-47.5136-38.656-86.17472-86.1696-86.17472-47.51872 0-86.17984 38.656-86.17984 86.17472 0 34.84672 20.83328 64.8704 50.66752 78.42816L447.8464 677.10464a85.43744 85.43744 0 0 0-39.86432-9.85088c-27.41248 0-51.82464 12.9024-67.61472 32.90112l-181.02784-106.75712a85.57568 85.57568 0 0 0 13.04576-45.36832c0-47.51872-38.67136-86.18496-86.1696-86.18496-47.51872 0-86.17984 38.66624-86.17984 86.18496 0 47.50336 38.66112 86.15424 86.17984 86.15424 25.4464 0 48.27136-11.15136 64.06144-28.72832l181.80096 107.20768a85.72416 85.72416 0 0 0-10.28096 40.76032c0 47.49824 38.67136 86.1696 86.19008 86.1696 47.50336 0 86.1696-38.65088 86.1696-86.1696 0-27.63776-13.1328-52.21376-33.42336-67.98848l124.416-329.63072c6.84032 1.75616 13.9776 2.7904 21.36576 2.7904 27.1616 0 51.37408-12.65152 67.18464-32.36352l194.76992 170.8032c-10.52672 14.30016-16.83968 31.8976-16.83968 50.97984 0 47.49824 38.66624 86.15424 86.19008 86.15424 47.51872 0 86.1696-38.656 86.1696-86.15424-0.01536-47.50848-38.67136-86.17472-86.19008-86.17472zM86.20544 589.23008c-22.7328 0-41.22112-18.48832-41.22112-41.20576 0-22.74304 18.48832-41.216 41.22112-41.216 22.72256 0 41.21088 18.46784 41.21088 41.216 0.00512 22.71744-18.48832 41.20576-41.21088 41.20576z m321.77152 205.40928c-22.7328 0-41.22112-18.48832-41.22112-41.22112 0-22.72256 18.48832-41.22112 41.22112-41.22112 22.71744 0 41.21088 18.4832 41.21088 41.22112-0.01024 22.7328-18.49856 41.22112-41.21088 41.22112z m198.52288-481.00352c-22.72768 0-41.22112-18.4832-41.22112-41.216 0-22.72256 18.48832-41.21088 41.22112-41.21088 22.72256 0 41.20576 18.4832 41.20576 41.21088 0 22.7328-18.47808 41.216-41.20576 41.216z m331.29984 275.59424c-22.72256 0-41.22112-18.48832-41.22112-41.20576 0-22.74304 18.48832-41.216 41.22112-41.216 22.73792 0 41.216 18.46784 41.216 41.216 0 22.71744-18.47808 41.20576-41.216 41.20576z" p-id="32749" fill="#efb336"></path></svg>