<svg viewBox="0 0 16 16" xmlns="http://www.w3.org/2000/svg" fit="" height="1em" width="1em" preserveAspectRatio="xMidYMid meet" focusable="false"><g id="amfeditor/formula" stroke-width="1" fill-rule="evenodd"><path d="M12.663 11.027c-.117.142-.25.318-.4.527.09.88.404 1.722.913 2.446a.807.807 0 00.951.051c.212-.071.317.313 0 .494a2.582 2.582 0 01-2.376.185 2.786 2.786 0 01-.918-1.726c-.101.152-.177.27-.223.346-.05.08-.121.194-.215.34a5.11 5.11 0 01-.776.993 1.134 1.134 0 01-.787.3.82.82 0 01-.832-.852 1.058 1.058 0 011.085-1.113c.176 0 .352.021.522.066.167.045.324.094.471.147a2.69 2.69 0 00.264-.271c.129-.15.25-.305.362-.467-.15-.602-.31-1.287-.527-2.038a.869.869 0 00-1.281-.585c-.259.118-.388-.329.094-.529.447-.184 2.482-1.047 2.941.8.075.303.144.597.212.885l.246-.38c.085-.13.157-.246.218-.346.213-.368.476-.704.781-1 .214-.194.492-.301.781-.3a.8.8 0 01.594.239.84.84 0 01.238.619c.015.3-.1.59-.314.8a1.075 1.075 0 01-.767.3 2.1 2.1 0 01-.535-.069 5.572 5.572 0 01-.456-.138 1.662 1.662 0 00-.266.276zM7.223 5.4H8.5a.6.6 0 110 1.2H6.928c-.236 1.116-.614 3-.573 2.8-.105.506-.198.919-.297 1.318-.17.677-.36 1.312-.604 1.999-.587 1.652-1.397 2.363-2.395 2.363-.146 0-.283-.009-.412-.027-.627-.087-1.061-.549-1.305-1.273a.6.6 0 011.137-.383c.112.334.224.452.334.468.072.01.154.015.246.015.432 0 .833-.352 1.264-1.565.23-.65.41-1.248.57-1.889.096-.38.185-.778.287-1.27-.04.193.285-1.423.522-2.556H4.5a.6.6 0 110-1.2h1.472c.456-1.698 1.376-3.494 2.285-4.009.84-.476 1.634-.401 2.159.29a.6.6 0 01-.955.726c-.124-.163-.254-.175-.612.028-.51.289-1.218 1.642-1.627 2.965z" id="amf形状结合"></path></g></svg>