<?xml version="1.0" standalone="no"?><!DOCTYPE svg PUBLIC "-//W3C//DTD SVG 1.1//EN" "http://www.w3.org/Graphics/SVG/1.1/DTD/svg11.dtd"><svg height="301" node-id="1" sillyvg="true" template-height="301" template-width="332" version="1.1" viewBox="0 0 332 301" width="332" xmlns="http://www.w3.org/2000/svg" xmlns:xlink="http://www.w3.org/1999/xlink"><defs node-id="29"></defs><g node-id="116"><path d="M 259.90 17.50 L 250.10 12.00 L 239.50 7.10 L 229.90 3.50 L 223.30 1.80 L 214.00 0.90 L 202.40 0.20 L 190.00 0.00 L 176.00 0.40 L 156.60 1.80 L 135.90 4.60 L 114.90 9.00 L 104.40 11.80 L 94.10 15.20 L 83.90 19.00 L 69.10 25.80 L 55.20 33.80 L 48.50 38.40 L 42.30 43.30 L 36.30 48.60 L 30.60 54.30 L 25.40 60.30 L 20.60 66.80 L 16.20 73.70 L 12.20 81.10 L 9.40 87.10 L 7.00 93.50 L 4.90 100.30 L 3.10 107.40 L 1.70 115.00 L 0.80 122.40 L 0.20 130.30 L 0.10 138.60 L 0.40 147.50 L 1.20 156.90 L 2.50 165.90 L 4.20 174.40 L 6.30 182.50 L 8.80 190.10 L 11.80 197.40 L 15.20 204.60 L 19.00 211.40 L 23.10 217.80 L 27.50 224.00 L 32.30 229.80 L 38.70 236.80 L 45.60 243.30 L 52.90 249.40 L 60.70 255.10 L 68.70 260.30 L 77.10 265.20 L 85.80 269.70 L 94.90 273.90 L 104.10 277.60 L 123.00 284.20 L 132.80 287.00 L 145.90 290.30 L 159.10 293.10 L 172.40 295.40 L 198.70 298.70 L 224.30 300.40 L 248.10 300.80 L 265.20 300.40 L 280.20 299.50 L 286.30 298.70 L 291.90 297.30 L 297.20 295.40 L 302.10 293.10 L 306.70 290.20 L 311.00 286.90 L 314.90 283.20 L 318.40 279.20 L 321.60 274.80 L 324.30 270.10 L 326.70 265.20 L 328.70 260.00 L 330.30 254.60 L 331.40 249.10 L 332.10 243.50 L 332.30 237.70 L 332.20 231.90 L 331.50 226.10 L 330.40 220.30 L 328.70 214.50 L 326.70 208.80 L 324.10 203.30 L 321.00 197.90 L 308.40 180.10 L 301.20 167.70 L 298.00 160.90 L 295.20 154.10 L 293.60 149.50 L 291.30 140.60 L 290.70 136.30 L 290.60 132.20 L 290.90 128.50 L 292.10 121.90 L 297.40 99.90 L 298.90 92.20 L 299.80 84.20 L 300.10 78.90 L 299.80 73.40 L 299.20 67.90 L 298.00 62.40 L 296.10 56.90 L 293.60 51.10 L 288.50 42.90 L 285.10 38.70 L 277.00 30.30 L 272.10 26.20 L 259.90 17.50 Z" fill="#dadada" fill-opacity="0.23" fill-rule="nonzero" group-id="1" node-id="33" stroke="none" target-height="300.8" target-width="332.19998" target-x="0.1" target-y="0"></path></g><g node-id="117"><path d="M 281.60 227.80 L 78.80 227.80 L 74.60 227.20 L 71.00 225.60 L 68.40 223.30 L 67.50 221.80 L 66.80 218.60 L 66.80 109.70 L 67.50 106.50 L 68.40 105.00 L 71.00 102.70 L 74.60 101.10 L 78.80 100.50 L 280.60 100.50 L 284.80 101.10 L 288.40 102.70 L 291.00 105.00 L 291.90 106.50 L 292.60 109.70 L 293.60 218.60 L 292.90 221.80 L 292.00 223.30 L 289.40 225.60 L 285.80 227.20 L 281.60 227.80 Z" fill="#ffffff" fill-rule="nonzero" group-id="2" node-id="38" stroke="none" target-height="127.3" target-width="226.8" target-x="66.8" target-y="100.5"></path></g><g node-id="118"><path d="M 168.70 105.10 L 274.00 105.10 L 278.20 105.70 L 280.00 106.40 L 283.20 108.40 L 285.30 111.10 L 286.00 114.30 L 287.00 223.20 L 286.30 226.40 L 285.40 227.90 L 282.80 230.20 L 281.00 231.10 L 277.20 232.20 L 275.00 232.40 L 85.60 232.40" fill="none" group-id="3" node-id="43" stroke="#7f95ff" stroke-linecap="butt" stroke-width="1.4" target-height="127.299995" target-width="201.4" target-x="85.6" target-y="105.1"></path></g><g node-id="119"><path d="M 60.20 204.30 L 60.20 114.30 L 60.90 111.10 L 61.80 109.60 L 64.40 107.30 L 66.20 106.40 L 70.00 105.30 L 72.20 105.10 L 141.70 105.10" fill="none" group-id="4" node-id="48" stroke="#7f95ff" stroke-linecap="butt" stroke-width="1.4" target-height="99.200005" target-width="81.5" target-x="60.2" target-y="105.1"></path></g><g node-id="120"><path d="M 158.40 150.40 L 167.60 150.40 L 169.40 151.10 L 170.10 152.90 L 170.10 162.10 L 169.90 163.00 L 168.60 164.40 L 158.40 164.60 L 156.60 163.80 L 155.90 162.10 L 155.90 152.90 L 156.60 151.10 L 158.40 150.40 Z" fill="#7f95ff" fill-opacity="0.37" fill-rule="nonzero" group-id="5" node-id="53" stroke="none" target-height="14.200012" target-width="14.200012" target-x="155.9" target-y="150.4"></path></g><path d="M 152.50 144.80 L 163.80 144.80 L 165.60 145.50 L 166.30 147.30 L 166.30 158.60 L 166.10 159.60 L 164.80 160.90 L 152.50 161.10 L 150.70 160.30 L 150.00 158.60 L 150.00 147.30 L 150.70 145.50 L 152.50 144.80 Z" fill="none" node-id="56" stroke="#4e4f57" stroke-linecap="butt" stroke-width="1.4" target-height="16.300003" target-width="16.300003" target-x="150" target-y="144.8"></path><g node-id="121"><path d="M 181.90 147.80 L 224.80 147.80" fill="none" group-id="6" node-id="60" stroke="#0a0b1f" stroke-linecap="butt" stroke-opacity="0.45" stroke-width="1.4" target-height="0" target-width="42.90001" target-x="181.9" target-y="147.8"></path></g><g node-id="122"><path d="M 182.10 159.40 L 214.80 159.40" fill="none" group-id="7" node-id="65" stroke="#0a0b1f" stroke-linecap="butt" stroke-opacity="0.45" stroke-width="1.4" target-height="0" target-width="32.699997" target-x="182.1" target-y="159.4"></path></g><g node-id="123"><path d="M 158.40 184.80 L 167.60 184.80 L 168.60 185.00 L 169.90 186.30 L 170.10 196.50 L 169.40 198.20 L 167.60 199.00 L 158.40 199.00 L 157.40 198.80 L 156.10 197.40 L 155.90 187.30 L 156.60 185.50 L 158.40 184.80 Z" fill="#7f95ff" fill-opacity="0.37" fill-rule="nonzero" group-id="8" node-id="70" stroke="none" target-height="14.199997" target-width="14.200012" target-x="155.9" target-y="184.8"></path></g><path d="M 152.50 179.10 L 163.80 179.10 L 165.60 179.80 L 166.30 181.60 L 166.30 192.90 L 166.10 193.90 L 164.80 195.20 L 152.50 195.40 L 150.70 194.60 L 150.00 192.90 L 150.00 181.60 L 150.70 179.80 L 152.50 179.10 Z" fill="none" node-id="73" stroke="#4e4f57" stroke-linecap="butt" stroke-width="1.4" target-height="16.299988" target-width="16.300003" target-x="150" target-y="179.1"></path><g node-id="124"><path d="M 181.90 182.10 L 184.40 182.10" fill="none" group-id="9" node-id="77" stroke="#0a0b1f" stroke-linecap="butt" stroke-opacity="0.45" stroke-width="1.4" target-height="0" target-width="2.5" target-x="181.9" target-y="182.1"></path><path d="M 189.80 182.10 L 219.60 182.10" fill="none" group-id="9" node-id="79" stroke="#0a0b1f" stroke-dasharray="5.41 5.41" stroke-linecap="butt" stroke-opacity="0.45" stroke-width="1.4" target-height="0" target-width="29.800003" target-x="189.8" target-y="182.1"></path><path d="M 222.30 182.10 L 224.80 182.10" fill="none" group-id="9" node-id="81" stroke="#0a0b1f" stroke-linecap="butt" stroke-opacity="0.45" stroke-width="1.4" target-height="0" target-width="2.5" target-x="222.3" target-y="182.1"></path></g><g node-id="125"><path d="M 182.10 193.80 L 214.80 193.80" fill="none" group-id="10" node-id="86" stroke="#0a0b1f" stroke-linecap="butt" stroke-opacity="0.45" stroke-width="1.4" target-height="0" target-width="32.699997" target-x="182.1" target-y="193.8"></path></g><g node-id="126"><path d="M 121.80 171.80 L 121.50 175.10 L 120.70 178.10 L 119.30 180.90 L 117.50 183.50 L 115.40 185.60 L 112.80 187.40 L 110.00 188.80 L 107.00 189.60 L 103.70 189.90 L 100.40 189.60 L 97.40 188.80 L 94.60 187.40 L 92.00 185.60 L 89.90 183.50 L 88.10 180.90 L 86.70 178.10 L 85.90 175.10 L 85.60 171.80 L 85.90 168.50 L 86.70 165.50 L 88.10 162.70 L 89.90 160.10 L 92.00 158.00 L 94.60 156.20 L 97.40 154.80 L 100.40 154.00 L 103.70 153.70 L 103.70 171.80 Z" fill="#7f95ff" fill-opacity="0.37" fill-rule="nonzero" group-id="11" node-id="91" stroke="none" target-height="36.199997" target-width="36.200005" target-x="85.6" target-y="153.7"></path></g><g node-id="127"><path d="M 123.80 167.70 L 123.50 164.70 L 122.80 162.00 L 121.70 159.50 L 120.20 157.20 L 118.30 155.20 L 116.20 153.60 L 113.80 152.40 L 111.30 151.70 L 108.50 151.40 L 108.50 167.70 Z" fill="#7f95ff" fill-rule="nonzero" group-id="12" node-id="96" stroke="none" target-height="16.300003" target-width="15.300003" target-x="108.5" target-y="151.4"></path></g><g node-id="128"><path d="M 25.90 105.20 L 61.80 44.80 L 63.00 43.20 L 64.40 42.00 L 66.20 41.10 L 67.80 40.80 L 71.00 41.30 L 72.50 42.20 L 73.70 43.30 L 74.60 44.80 L 92.90 84.00 L 93.50 84.70 L 94.30 85.20 L 96.10 85.30 L 98.20 84.00 L 101.20 79.70 L 110.50 60.60 L 112.40 59.40 L 114.40 59.50 L 116.00 60.60 L 118.70 64.00 L 147.40 105.20 Z" fill="#7f95ff" fill-rule="nonzero" group-id="13" node-id="101" stroke="none" target-height="64.399994" target-width="121.49999" target-x="25.9" target-y="40.8"></path></g><g node-id="129"><path d="M 88.80 59.50 L 101.50 86.80 L 102.90 88.00 L 104.00 88.30 L 105.60 87.70 L 106.80 86.80 L 109.80 82.50 L 119.10 63.40 L 121.00 62.20 L 122.00 62.10 L 123.80 62.70 L 127.30 66.60 L 132.10 73.00 L 156.10 105.40 L 34.50 105.40 L 71.60 46.00 L 73.00 44.80 L 74.80 44.00 L 76.40 43.60 L 79.70 44.10 L 82.30 46.20 L 84.80 51.00" fill="none" group-id="14" node-id="106" stroke="#7f95ff" stroke-linecap="butt" stroke-width="1.4" target-height="61.800003" target-width="121.600006" target-x="34.5" target-y="43.6"></path></g><g node-id="130"><path d="M 112.50 34.20 L 112.20 36.20 L 111.50 37.90 L 110.40 39.40 L 108.90 40.50 L 107.20 41.20 L 105.20 41.50 L 103.20 41.20 L 101.50 40.50 L 100.00 39.40 L 98.90 37.90 L 98.20 36.20 L 97.90 34.20 L 98.20 32.20 L 98.90 30.50 L 100.00 29.00 L 101.50 27.90 L 103.20 27.20 L 105.20 26.90 L 107.20 27.20 L 108.90 27.90 L 110.40 29.00 L 111.50 30.50 L 112.20 32.20 L 112.50 34.20 Z" fill="none" group-id="15" node-id="111" stroke="#ffaa00" stroke-linecap="butt" stroke-opacity="0.57" stroke-width="1.4" target-height="14.6" target-width="14.599998" target-x="97.9" target-y="26.9"></path></g><path d="M 107.30 32.40 L 107.00 34.40 L 106.30 36.10 L 105.20 37.60 L 103.70 38.70 L 102.00 39.40 L 100.00 39.70 L 98.00 39.40 L 96.30 38.70 L 94.80 37.60 L 93.70 36.10 L 93.00 34.40 L 92.70 32.40 L 93.00 30.40 L 93.70 28.70 L 94.80 27.20 L 96.30 26.10 L 98.00 25.40 L 100.00 25.10 L 102.00 25.40 L 103.70 26.10 L 105.20 27.20 L 106.30 28.70 L 107.00 30.40 L 107.30 32.40 Z" fill="#ffaa00" fill-rule="nonzero" node-id="114" stroke="none" target-height="14.6" target-width="14.600006" target-x="92.7" target-y="25.1"></path></svg>