<?xml version="1.0" standalone="no"?><!DOCTYPE svg PUBLIC "-//W3C//DTD SVG 1.1//EN" "http://www.w3.org/Graphics/SVG/1.1/DTD/svg11.dtd"><svg t="1750899885088" class="icon" viewBox="0 0 1024 1024" version="1.1" xmlns="http://www.w3.org/2000/svg" p-id="7743" xmlns:xlink="http://www.w3.org/1999/xlink" width="200" height="200"><path d="M964.096 174.08V95.744c0-23.552-18.944-42.496-42.496-42.496H95.232c-23.552 0-42.496 18.944-42.496 42.496V174.08h911.36zM52.736 213.504v528.384c0 23.552 18.944 42.496 42.496 42.496h826.88c23.552 0 42.496-18.944 42.496-42.496V213.504H52.736z" fill="#FFE3DA" p-id="7744"></path><path d="M135.68 113.664m-20.48 0a20.48 20.48 0 1 0 40.96 0 20.48 20.48 0 1 0-40.96 0Z" fill="#FF641A" p-id="7745"></path><path d="M207.36 113.664m-20.48 0a20.48 20.48 0 1 0 40.96 0 20.48 20.48 0 1 0-40.96 0Z" fill="#FF641A" p-id="7746"></path><path d="M279.04 113.664m-20.48 0a20.48 20.48 0 1 0 40.96 0 20.48 20.48 0 1 0-40.96 0Z" fill="#FF641A" p-id="7747"></path><path d="M307.2 505.344H170.496c-22.528 0-40.96-18.432-40.96-40.96V327.68c0-22.528 18.432-40.96 40.96-40.96H307.2c22.528 0 40.96 18.432 40.96 40.96v136.704c0 22.528-18.432 40.96-40.96 40.96zM863.744 350.72H438.272c-17.92 0-31.744-14.336-31.744-31.744 0-17.92 14.336-31.744 31.744-31.744h425.472c17.92 0 32.256 14.336 32.256 31.744-0.512 17.408-14.848 31.744-32.256 31.744zM610.816 491.52H438.272c-17.92 0-31.744-14.336-31.744-31.744 0-17.92 14.336-31.744 31.744-31.744h173.056c17.92 0 31.744 14.336 31.744 31.744 0 17.408-14.336 31.744-32.256 31.744z" fill="#FF641A" p-id="7748"></path><path d="M884.736 475.136l-46.592-46.592c-14.848-14.848-38.4-14.848-53.248 0L762.88 450.56l99.84 99.84 22.016-22.016c14.336-14.848 14.336-38.912 0-53.248zM397.312 815.616c-5.632 5.632-9.728 13.312-10.752 20.992l-32.256 105.984c-3.584 11.264 7.168 22.016 18.944 18.432l103.936-34.304c7.68-1.536 14.848-5.12 19.968-10.752l348.672-348.672-99.84-99.84-348.672 348.16z" fill="#FF641A" p-id="7749"></path></svg>