<?xml version="1.0" standalone="no"?><!DOCTYPE svg PUBLIC "-//W3C//DTD SVG 1.1//EN" "http://www.w3.org/Graphics/SVG/1.1/DTD/svg11.dtd"><svg t="1751273819736" class="icon" viewBox="0 0 1024 1024" version="1.1" xmlns="http://www.w3.org/2000/svg" p-id="33618" xmlns:xlink="http://www.w3.org/1999/xlink" width="200" height="200"><path d="M798.7 901.1H225.3c-22.5 0-41 18.4-41 41 0 22.5 18.4 41 41 41h573.4c22.5 0 41-18.4 41-41 0-22.5-18.5-41-41-41zM860.2 41H163.8C96.1 41 41 96.1 41 163.8v532.5c0 67.8 55.1 122.9 122.9 122.9h696.3c67.8 0 122.9-55.1 122.9-122.9V163.8C983 96.1 927.9 41 860.2 41zM327.7 593.9c0 22.5-18.4 41-41 41s-41-18.4-41-41V348.2c0-22.5 18.4-41 41-41s41 18.4 41 41v245.7z m225.3 0c0 22.5-18.4 41-41 41-22.5 0-41-18.4-41-41V266.2c0-22.5 18.4-41 41-41 22.5 0 41 18.4 41 41v327.7z m225.2 0c0 22.5-18.4 41-41 41-22.5 0-41-18.4-41-41V471c0-22.5 18.4-41 41-41 22.5 0 41 18.4 41 41v122.9z" fill="#ffffff" p-id="33619"></path></svg>