<?xml version="1.0" standalone="no"?><!DOCTYPE svg PUBLIC "-//W3C//DTD SVG 1.1//EN" "http://www.w3.org/Graphics/SVG/1.1/DTD/svg11.dtd"><svg t="1751272999523" class="icon" viewBox="0 0 1024 1024" version="1.1" xmlns="http://www.w3.org/2000/svg" p-id="30769" xmlns:xlink="http://www.w3.org/1999/xlink" width="200" height="200"><path d="M960 38.4H697.6V992H960c38.4 0 64-25.6 64-64V102.4c0-38.4-32-64-64-64z m-64 499.2H780.8c-12.8 0-25.6-12.8-25.6-25.6s12.8-25.6 25.6-25.6H896c12.8 0 25.6 12.8 25.6 25.6s-12.8 25.6-25.6 25.6z m0-147.2H780.8c-12.8 0-25.6-12.8-25.6-25.6s12.8-25.6 25.6-25.6H896c12.8 0 25.6 12.8 25.6 25.6s-12.8 25.6-25.6 25.6z m0-147.2H780.8c-12.8 0-25.6-12.8-25.6-25.6 6.4-12.8 12.8-25.6 25.6-25.6H896c12.8 0 25.6 12.8 25.6 25.6s-12.8 25.6-25.6 25.6zM371.2 38.4V992h281.6V38.4H371.2z m198.4 499.2H454.4c-12.8 0-25.6-12.8-25.6-25.6s12.8-25.6 25.6-25.6h115.2c12.8 0 25.6 12.8 25.6 25.6s-12.8 25.6-25.6 25.6z m0-147.2H454.4c-12.8 0-25.6-12.8-25.6-25.6s12.8-25.6 25.6-25.6h115.2c12.8 0 25.6 12.8 25.6 25.6s-12.8 25.6-25.6 25.6z m0-147.2H454.4c-12.8 0-25.6-12.8-25.6-25.6s12.8-25.6 25.6-25.6h115.2c12.8 0 25.6 12.8 25.6 25.6s-12.8 25.6-25.6 25.6zM64 38.4c-38.4 0-64 25.6-64 64V928c0 32 32 64 64 64h256V38.4H64z m179.2 499.2H128c-12.8 0-25.6-12.8-25.6-25.6s12.8-25.6 25.6-25.6h115.2c12.8 0 19.2 12.8 19.2 25.6s-6.4 25.6-19.2 25.6z m0-147.2H128c-12.8 0-25.6-12.8-25.6-25.6s12.8-25.6 25.6-25.6h115.2c12.8 0 25.6 12.8 25.6 25.6s-12.8 25.6-25.6 25.6z m0-147.2H128c-12.8 0-25.6-12.8-25.6-25.6S115.2 192 128 192h115.2c12.8 0 25.6 12.8 25.6 25.6s-12.8 25.6-25.6 25.6z m0 0" p-id="30770" fill="#ffffff"></path></svg>