<?xml version="1.0" standalone="no"?><!DOCTYPE svg PUBLIC "-//W3C//DTD SVG 1.1//EN" "http://www.w3.org/Graphics/SVG/1.1/DTD/svg11.dtd"><svg t="1750598255920" class="icon" viewBox="0 0 1024 1024" version="1.1" xmlns="http://www.w3.org/2000/svg" p-id="38634" xmlns:xlink="http://www.w3.org/1999/xlink" width="200" height="200"><path d="M938.88 182.144H518.336a22.272 22.272 0 0 1-15.168-5.952l-111.488-106.24A21.952 21.952 0 0 0 376.448 64H127.616c-16.896 0-33.088 6.208-44.992 17.28A56.96 56.96 0 0 0 64 123.072v713.856c0 15.68 6.656 30.72 18.56 41.792 11.968 11.072 28.16 17.28 45.056 17.28h768.768c16.896 0 33.088-6.208 44.992-17.28a56.96 56.96 0 0 0 18.624-41.792V201.856a18.88 18.88 0 0 0-6.144-13.952 21.952 21.952 0 0 0-14.912-5.76zM530.56 366.72c25.728 0.832 46.144 20.48 46.144 44.352 0 23.936-20.416 43.52-46.144 44.288H238.976a48.704 48.704 0 0 1-42.688-21.76 41.6 41.6 0 0 1 0-45.12 48.704 48.704 0 0 1 42.688-21.76H530.56z m254.464 334.848H238.976a48.704 48.704 0 0 1-42.688-21.76 41.6 41.6 0 0 1 0-45.184 48.704 48.704 0 0 1 42.688-21.76h546.048a48.704 48.704 0 0 1 42.688 21.76 41.6 41.6 0 0 1 0 45.184 48.704 48.704 0 0 1-42.688 21.76z" fill="currentColor" p-id="38635"></path></svg>