<?xml version="1.0" standalone="no"?><!DOCTYPE svg PUBLIC "-//W3C//DTD SVG 1.1//EN" "http://www.w3.org/Graphics/SVG/1.1/DTD/svg11.dtd"><svg t="1750598198604" class="icon" viewBox="0 0 1024 1024" version="1.1" xmlns="http://www.w3.org/2000/svg" p-id="35858" xmlns:xlink="http://www.w3.org/1999/xlink" width="200" height="200"><path d="M783.36 913.067H240.64c-18.773 0-34.133-15.36-34.133-34.134s15.36-34.133 34.133-34.133h542.72c18.773 0 34.133 15.36 34.133 34.133s-15.36 34.134-34.133 34.134zM896 119.467H128c-51.2 0-93.867 40.96-93.867 93.866v450.56c0 51.2 42.667 93.867 93.867 93.867h768c51.2 0 93.867-42.667 93.867-93.867v-450.56c0-52.906-42.667-93.866-93.867-93.866z m-117.76 204.8l-170.667 209.92c-15.36 18.773-37.546 30.72-61.44 30.72-23.893 1.706-47.786-8.534-64.853-25.6l-75.093-75.094c-3.414-3.413-8.534-3.413-11.947-3.413-3.413 0-8.533 1.707-11.947 6.827l-81.92 109.226c-6.826 8.534-17.066 13.654-27.306 13.654-6.827 0-13.654-1.707-20.48-6.827-15.36-11.947-18.774-32.427-6.827-47.787l81.92-109.226c15.36-20.48 37.547-32.427 61.44-34.134 23.893-1.706 49.493 6.827 66.56 25.6l75.093 75.094c5.12 5.12 10.24 5.12 13.654 5.12 3.413 0 8.533-1.707 11.946-6.827L727.04 281.6c11.947-15.36 34.133-17.067 47.787-5.12 13.653 11.947 15.36 32.427 3.413 47.787z" fill="currentColor" p-id="35859"></path></svg>