<?xml version="1.0" standalone="no"?><!DOCTYPE svg PUBLIC "-//W3C//DTD SVG 1.1//EN" "http://www.w3.org/Graphics/SVG/1.1/DTD/svg11.dtd"><svg class="icon" width="200px" height="200.00px" viewBox="0 0 1024 1024" version="1.1" xmlns="http://www.w3.org/2000/svg"><path d="M125.333333 318.666667h257.76V898.666667H125.333333z" fill="#FFA800" /><path d="M106.666667 106.666667h810.666666v230.666666H106.666667z" fill="#23B8BA" /><path d="M106.666667 106.666667v810.666666h810.666666V106.666667z m37.333333 230.666666h220.426667V493.333333H144zM401.76 493.333333V337.333333h220.48V493.333333z m220.48 37.333334v156H401.76V530.666667zM144 530.666667h220.426667v156H144z m0 349.333333v-156h220.426667V880z m257.76 0v-156h220.48V880z m478.24 0h-220.426667v-156H880z m0-193.333333h-220.426667V530.666667H880z m0-193.333334h-220.426667V337.333333H880z m0-193.333333H144V144h736z" fill="#0985F6" /><path d="M909.333333 114.666667v794.666666h-794.666666v-794.666666h794.666666m-773.333333 193.333333h752V136h-752v172M651.573333 501.333333h236.426667V329.333333h-236.426667V501.333333m-257.813333 0h236.48V329.333333H393.76V501.333333M136 501.333333h236.426667V329.333333H136V501.333333m515.573333 193.333334h236.426667V522.666667h-236.426667v172m-257.813333 0h236.48V522.666667H393.76v172m-257.76 0h236.426667V522.666667H136v172m515.573333 193.333333h236.426667v-172h-236.426667v172m-257.813333 0h236.48v-172H393.76v172m-257.76 0h236.426667v-172H136v172M917.333333 106.666667H106.666667v810.666666h810.666666V106.666667zM144 300V144h736v156z m515.573333 193.333333V337.333333H880V493.333333z m-257.813333 0V337.333333h220.48V493.333333zM144 493.333333V337.333333h220.426667V493.333333z m515.573333 193.333334V530.666667H880v156z m-257.813333 0V530.666667h220.48v156z m-257.76 0V530.666667h220.426667v156zM659.573333 880v-156H880V880z m-257.813333 0v-156h220.48V880zM144 880v-156h220.426667V880z" fill="#006FC1" /></svg>