<?xml version="1.0" standalone="no"?><!DOCTYPE svg PUBLIC "-//W3C//DTD SVG 1.1//EN" "http://www.w3.org/Graphics/SVG/1.1/DTD/svg11.dtd"><svg class="icon" width="200px" height="200.00px" viewBox="0 0 1024 1024" version="1.1" xmlns="http://www.w3.org/2000/svg"><path d="M462.933333 550.826667v-416a407.946667 407.946667 0 1 0 308.906667 694.026666z" fill="#0985F6" /><path d="M452.266667 146.24v409.333333l3.52 3.2 300.48 270.56a397.28 397.28 0 1 1-304-683.093333m10.666666-11.306667a407.946667 407.946667 0 1 0 308.906667 694.026667L462.933333 550.826667v-416z" fill="#006FC1" /><path d="M950.4 523.786667a469.333333 469.333333 0 0 0-450.186667-450.24v450.24z" fill="#FFA800" /><path d="M510.88 84.746667a458.666667 458.666667 0 0 1 428.32 428.373333H510.88V84.746667m-10.666667-11.2v450.24h450.186667a469.333333 469.333333 0 0 0-450.186667-450.24z" fill="#E29103" /><path d="M950.453333 561.12h-420.266666L842.666667 842.293333a467.2 467.2 0 0 0 107.786666-281.173333z" fill="#23B8BA" /><path d="M939.253333 571.786667A453.333333 453.333333 0 0 1 841.226667 826.666667l-283.253334-255.093334h381.28m11.2-10.666666h-420.266666L842.666667 842.293333a467.2 467.2 0 0 0 108-281.173333z" fill="#14A59E" /></svg>