<?xml version="1.0" standalone="no"?><!DOCTYPE svg PUBLIC "-//W3C//DTD SVG 1.1//EN" "http://www.w3.org/Graphics/SVG/1.1/DTD/svg11.dtd"><svg class="icon" width="200px" height="200.00px" viewBox="0 0 1024 1024" version="1.1" xmlns="http://www.w3.org/2000/svg"><path d="M106.666667 717.12h96V917.333333H106.666667z" fill="#0985F6" /><path d="M194.666667 725.333333v184h-80V725.333333h80m8-8H106.666667V917.333333h96v-200.213333z" fill="#006FC1" /><path d="M106.666667 420h96v297.12H106.666667z" fill="#23B8BA" /><path d="M194.666667 428V709.333333h-80V428h80m8-8H106.666667v297.12h96V420z" fill="#14A59E" /><path d="M106.666667 240.586667h96v179.413333H106.666667z" fill="#FFA800" /><path d="M194.666667 248.586667v163.413333h-80V248.586667h80m8-8H106.666667v179.413333h96V240.586667z" fill="#E29103" /><path d="M464 662.24h96V917.333333H464z" fill="#0985F6" /><path d="M552 670.24v239.093333h-80v-239.093333h80m8-8H464V917.333333h96v-255.093333z" fill="#006FC1" /><path d="M464 240.586667h96v421.653333H464z" fill="#23B8BA" /><path d="M552 248.586667v405.653333h-80V248.586667h80m8-8H464v421.653333h96V240.586667z" fill="#14A59E" /><path d="M464 106.666667h96v133.92H464z" fill="#FFA800" /><path d="M552 114.666667v117.92h-80V114.666667h80M560 106.666667H464v133.92h96V106.666667z" fill="#E29103" /><path d="M642.666667 758.346667h96V917.333333h-96z" fill="#0985F6" /><path d="M730.666667 766.346667v142.986666h-80v-142.986666h80m8-8h-96V917.333333h96v-158.986666z" fill="#006FC1" /><path d="M642.666667 515.946667h96v242.4h-96z" fill="#23B8BA" /><path d="M730.666667 523.946667v226.4h-80V523.946667h80m8-8h-96v242.4h96V515.946667z" fill="#14A59E" /><path d="M642.666667 192.053333h96v323.946667h-96z" fill="#FFA800" /><path d="M730.666667 200.053333v307.946667h-80V200.053333h80m8-8h-96v323.946667h96V192z" fill="#E29103" /><path d="M285.333333 855.786667h96V917.333333h-96z" fill="#0985F6" /><path d="M373.333333 864v45.546667H293.333333V864h80m8-8h-96V917.333333h96v-61.546666z" fill="#006FC1" /><path d="M285.333333 721.12h96v134.666667h-96z" fill="#23B8BA" /><path d="M373.333333 729.12V848H293.333333v-118.88h80m8-8h-96v134.666667h96v-134.666667z" fill="#14A59E" /><path d="M285.333333 458.133333h96v262.986667h-96z" fill="#FFA800" /><path d="M373.333333 466.133333v246.986667H293.333333V466.133333h80m8-8h-96v262.986667h96V458.133333z" fill="#E29103" /><path d="M821.333333 806.88h96V917.333333h-96z" fill="#0985F6" /><path d="M909.333333 814.88v94.453333h-80v-94.453333h80m8-8h-96V917.333333h96v-110.453333z" fill="#006FC1" /><path d="M821.333333 527.946667h96v278.933333h-96z" fill="#23B8BA" /><path d="M909.333333 535.946667v262.933333h-80v-262.933333h80M917.333333 528h-96v278.933333h96V528z" fill="#14A59E" /><path d="M821.333333 358.293333h96v169.6h-96z" fill="#FFA800" /><path d="M909.333333 366.293333v153.653334h-80V366.293333h80m8-8h-96V528h96V358.293333z" fill="#E29103" /></svg>