<?xml version="1.0" standalone="no"?><!DOCTYPE svg PUBLIC "-//W3C//DTD SVG 1.1//EN" "http://www.w3.org/Graphics/SVG/1.1/DTD/svg11.dtd"><svg class="icon" width="200px" height="200.00px" viewBox="0 0 1024 1024" version="1.1" xmlns="http://www.w3.org/2000/svg"><path d="M306.88 106.666667v96H106.666667V106.666667z" fill="#0985F6" /><path d="M298.666667 194.666667H114.666667v-80H298.666667v80m8 8V106.666667H106.666667v96z" fill="#006FC1" /><path d="M604 106.666667v96H306.88V106.666667z" fill="#23B8BA" /><path d="M596 194.666667H314.666667v-80h281.12v80m8 8V106.666667H306.88v96z" fill="#14A59E" /><path d="M783.413333 106.666667v96h-179.413333V106.666667z" fill="#FFA800" /><path d="M775.413333 194.666667h-163.413333v-80h163.413333v80m8 8V106.666667h-179.413333v96z" fill="#E29103" /><path d="M361.813333 464v96H106.72V464z" fill="#0985F6" /><path d="M353.76 552H114.666667v-80h239.093333v80m8 8V464H106.666667v96z" fill="#006FC1" /><path d="M783.413333 464v96H361.76V464z" fill="#23B8BA" /><path d="M775.413333 552H369.76v-80h405.653333v80m8 8V464H361.76v96z" fill="#14A59E" /><path d="M917.333333 464v96h-133.92V464z" fill="#FFA800" /><path d="M909.333333 552h-117.92v-80h117.92v80m8 8V464h-133.92v96z" fill="#E29103" /><path d="M265.706667 642.666667v96H106.72v-96z" fill="#0985F6" /><path d="M257.653333 730.666667H114.666667v-80h142.986666v80m8 8v-96H106.666667v96z" fill="#006FC1" /><path d="M508.106667 642.666667v96H265.706667v-96z" fill="#23B8BA" /><path d="M500.053333 730.666667H273.653333v-80h226.4v80m8 8v-96H265.653333v96z" fill="#14A59E" /><path d="M831.946667 642.666667v96H508v-96z" fill="#FFA800" /><path d="M823.946667 730.666667H516v-80h307.946667v80m8 8v-96H508v96z" fill="#E29103" /><path d="M168.213333 285.333333v96H106.666667v-96z" fill="#0985F6" /><path d="M160 373.333333h-45.333333V293.333333H160v80m8 8v-96H106.666667v96z" fill="#006FC1" /><path d="M302.88 285.333333v96H168.213333v-96z" fill="#23B8BA" /><path d="M294.88 373.333333H176V293.333333h118.88v80m8 8v-96H168.213333v96z" fill="#14A59E" /><path d="M565.866667 285.333333v96H302.88v-96z" fill="#FFA800" /><path d="M557.866667 373.333333H310.88V293.333333h246.986667v80m8 8v-96H302.88v96z" fill="#E29103" /><path d="M217.173333 821.333333v96H106.72v-96z" fill="#0985F6" /><path d="M209.12 909.333333H114.666667v-80h94.453333v80m8 8v-96H106.666667v96z" fill="#006FC1" /><path d="M496.053333 821.333333v96h-278.933333v-96z" fill="#23B8BA" /><path d="M488.053333 909.333333h-262.933333v-80h262.933333v80M496 917.333333v-96H217.12v96z" fill="#14A59E" /><path d="M665.706667 821.333333v96h-169.6v-96z" fill="#FFA800" /><path d="M657.706667 909.333333H504.053333v-80h153.653334v80m8 8v-96H496v96z" fill="#E29103" /></svg>