<?xml version="1.0" standalone="no"?><!DOCTYPE svg PUBLIC "-//W3C//DTD SVG 1.1//EN" "http://www.w3.org/Graphics/SVG/1.1/DTD/svg11.dtd"><svg class="icon" width="200px" height="200.00px" viewBox="0 0 1024 1024" version="1.1" xmlns="http://www.w3.org/2000/svg"><path d="M693.226667 170.666667v96H330.826667V170.666667z" fill="#0985F6" /><path d="M685.226667 258.666667h-346.666667v-80h346.666667v80M693.333333 266.666667V170.666667H330.666667v96z" fill="#006FC1" /><path d="M981.333333 561.813333v96h-438.666666v-96z" fill="#FFA800" /><path d="M973.333333 649.76h-422.666666v-80h422.666666v80m8 8v-96h-438.666666v96z" fill="#E29103" /><path d="M781.226667 757.333333v96H242.773333v-96z" fill="#0985F6" /><path d="M773.333333 845.333333H250.666667v-80h522.666666v80m8 8v-96h-538.666666v96z" fill="#006FC1" /><path d="M542.666667 366.186667v96H43.573333v-96z" fill="#23B8BA" /><path d="M534.666667 454.24H51.573333v-80h483.093334v80m8 8v-96H43.573333v96z" fill="#14A59E" /></svg>