<?xml version="1.0" standalone="no"?><!DOCTYPE svg PUBLIC "-//W3C//DTD SVG 1.1//EN" "http://www.w3.org/Graphics/SVG/1.1/DTD/svg11.dtd"><svg class="icon" width="200px" height="200.00px" viewBox="0 0 1024 1024" version="1.1" xmlns="http://www.w3.org/2000/svg"><path d="M832 192v640H192V192z m37.333333-37.333333H154.666667v714.666666h714.666666V154.666667z" fill="#0985F6" /><path d="M861.333333 162.666667v698.666666h-698.666666v-698.666666h698.666666m-677.333333 677.333333h656v-656h-656v656M869.333333 154.666667H154.666667v714.666666h714.666666V154.666667zM192 832V192h640v640z" fill="#006FC1" /><path d="M170.666667 170.666667m-64 0a64 64 0 1 0 128 0 64 64 0 1 0-128 0Z" fill="#FFA800" /><path d="M170.666667 114.666667A56 56 0 1 1 114.666667 170.666667 56.053333 56.053333 0 0 1 170.666667 114.666667m0-8a64 64 0 1 0 64 64 64 64 0 0 0-64-64z" fill="#E29103" /><path d="M853.333333 170.666667m-64 0a64 64 0 1 0 128 0 64 64 0 1 0-128 0Z" fill="#23B8BA" /><path d="M853.333333 114.666667A56 56 0 1 1 797.333333 170.666667 56.053333 56.053333 0 0 1 853.333333 114.666667m0-8a64 64 0 1 0 64 64 64 64 0 0 0-64-64z" fill="#14A59E" /><path d="M170.666667 853.333333m-64 0a64 64 0 1 0 128 0 64 64 0 1 0-128 0Z" fill="#23B8BA" /><path d="M170.666667 797.333333A56 56 0 1 1 114.666667 853.333333 56.053333 56.053333 0 0 1 170.666667 797.333333m0-8a64 64 0 1 0 64 64 64 64 0 0 0-64-64z" fill="#14A59E" /><path d="M853.333333 853.333333m-64 0a64 64 0 1 0 128 0 64 64 0 1 0-128 0Z" fill="#23B8BA" /><path d="M853.333333 797.333333a56 56 0 1 1-56 56 56.053333 56.053333 0 0 1 56-56m0-8a64 64 0 1 0 64 64 64 64 0 0 0-64-64z" fill="#14A59E" /><path d="M301.333333 290.88v88.213333h37.333334v-50.88h154.666666v367.573334h-58.666666v37.333333h154.666666v-37.333333h-58.666666V328.213333h154.666666v50.88h37.333334V290.88h-421.333334z" fill="#0985F6" /><path d="M714.666667 298.666667v72.426666h-21.333334V320H522.666667v384h58.666666v21.333333H442.666667v-21.333333h58.666666V320H330.666667v50.88h-21.333334V298.666667h405.333334m8-8h-421.333334v88.426666h37.333334v-50.88h154.666666v367.573334h-58.666666v37.333333h154.666666v-37.333333h-58.666666V328.213333h154.666666v50.88h37.333334V290.88z" fill="#006FC1" /></svg>