<?xml version="1.0" standalone="no"?><!DOCTYPE svg PUBLIC "-//W3C//DTD SVG 1.1//EN" "http://www.w3.org/Graphics/SVG/1.1/DTD/svg11.dtd"><svg class="icon" width="200px" height="200.00px" viewBox="0 0 1024 1024" version="1.1" xmlns="http://www.w3.org/2000/svg"><path d="M764.693333 333.866667L901.333333 249.6A468.96 468.96 0 0 0 530.666667 43.093333v160a309.333333 309.333333 0 0 1 234.026666 130.773334z" fill="#23B8BA" /><path d="M541.333333 54.293333a458.186667 458.186667 0 0 1 344.533334 192l-118.346667 73.28a318.613333 318.613333 0 0 0-226.186667-126.186666V54.293333m-10.666666-11.2v160a309.333333 309.333333 0 0 1 234.026666 130.773334L901.333333 249.6A468.96 468.96 0 0 0 530.666667 43.093333z" fill="#14A59E" /><path d="M720.693333 740.106667l100.906667 124.64a469.333333 469.333333 0 0 0 99.093333-583.413334l-136.32 84.266667a308.693333 308.693333 0 0 1-63.68 374.506667z" fill="#FFA800" /><path d="M916.746667 296.32a458.666667 458.666667 0 0 1-93.973334 552.96L735.2 741.333333a319.253333 319.253333 0 0 0 63.2-371.84l118.346667-73.173333m3.946666-14.986667l-136.32 84.266667a308.693333 308.693333 0 0 1-63.68 374.506667l100.906667 124.64a469.333333 469.333333 0 0 0 99.093333-583.413334z" fill="#E29103" /><path d="M691.626667 763.573333a309.333333 309.333333 0 1 1-198.293334-560v-160a469.333333 469.333333 0 1 0 299.253334 845.173334z" fill="#0985F6" /><path d="M482.666667 54.293333v139.093334a320 320 0 1 0 206.933333 584.586666l87.626667 108.266667A458.666667 458.666667 0 0 1 181.706667 193.76 456.16 456.16 0 0 1 482.666667 54.293333m10.666666-11.2a469.333333 469.333333 0 1 0 299.253334 845.173334l-100.96-124.693334a309.333333 309.333333 0 1 1-198.293334-560v-160z" fill="#006FC1" /></svg>