<?xml version="1.0" standalone="no"?><!DOCTYPE svg PUBLIC "-//W3C//DTD SVG 1.1//EN" "http://www.w3.org/Graphics/SVG/1.1/DTD/svg11.dtd"><svg class="icon" width="200px" height="200.00px" viewBox="0 0 1024 1024" version="1.1" xmlns="http://www.w3.org/2000/svg"><path d="M627.68 578.773333l87.2 50.346667-87.2-50.346667zM528 745.333333l-7.466667 106.666667h72.586667l88.64-48.48 62.826667-46.186667 47.306666-50.773333 17.013334-22.933333L714.666667 629.333333c-25.013333 43.413333-139.466667 116.853333-186.666667 116z" fill="#FFA800" /><path d="M379.36 512a131.786667 131.786667 0 0 1 17.013333-64.96L218.026667 346.666667a337.226667 337.226667 0 0 0 4.693333 338.56l175.52-105.226667A132 132 0 0 1 379.36 512z" fill="#23B8BA" /><path d="M512 277.76c50.4 0 169.226667 73.066667 192 114.24l219.093333-106.666667A469.333333 469.333333 0 0 0 512 42.666667v235.093333z" fill="#FFA800" /><path d="M512 42.666667a469.333333 469.333333 0 1 0 469.333333 469.333333A469.333333 469.333333 0 0 0 512 42.666667z m218.666667 469.333333a217.76 217.76 0 0 1-20.693334 92.746667l-53.333333-30.773334a157.653333 157.653333 0 0 0 0-123.946666l52.96-30.56A224 224 0 0 1 730.666667 512z m-437.333334 0a217.76 217.76 0 0 1 20.693334-92.746667l53.333333 30.773334a157.653333 157.653333 0 0 0 0 123.946666l-53.333333 30.773334A217.76 217.76 0 0 1 293.333333 512z m338.666667 0A120 120 0 1 1 512 392 120.106667 120.106667 0 0 1 632 512z m-138.666667-156.213333a157.546667 157.546667 0 0 0-107.306666 61.92l-53.333334-30.72a218.666667 218.666667 0 0 1 160.64-92.8z m-107.306666 250.666666a157.546667 157.546667 0 0 0 107.306666 61.76v61.6a218.666667 218.666667 0 0 1-160.586666-92.8z m144.64 61.76a157.546667 157.546667 0 0 0 107.306666-61.92l53.333334 30.72a218.666667 218.666667 0 0 1-160.586667 92.8z m107.306666-250.666666A157.546667 157.546667 0 0 0 530.666667 355.786667V294.133333a208.266667 208.266667 0 0 1 160.586666 92.8zM530.666667 256.746667V189.92a322.133333 322.133333 0 0 1 251.2 144.746667L723.786667 368A256 256 0 0 0 530.666667 256.746667z m-37.333334 0A256 256 0 0 0 300.213333 368l-57.6-33.066667a323.253333 323.253333 0 0 1 250.666667-145.013333z m-211.84 144a256.693333 256.693333 0 0 0 0 223.04L224 656.853333a321.173333 321.173333 0 0 1 0-289.653333zM300.213333 656a256 256 0 0 0 193.12 111.253333v66.826667a322.826667 322.826667 0 0 1-250.666666-144.906667z m230.453334 111.253333A256 256 0 0 0 723.786667 656l57.706666 33.333333a322.826667 322.826667 0 0 1-250.666666 144.906667z m211.84-144a256.693333 256.693333 0 0 0 0-223.04l58.026666-33.493333a323.413333 323.413333 0 0 1-0.32 289.866667zM872 512a357.866667 357.866667 0 0 0-39.36-163.573333l62.346667-36a430.826667 430.826667 0 0 1 0 399.146666l-62.346667-36A357.866667 357.866667 0 0 0 872 512z m4.213333-231.84l-62.24 35.946667A359.733333 359.733333 0 0 0 530.666667 152.48v-72a432 432 0 0 1 345.546666 199.68zM493.333333 80.48v72a359.733333 359.733333 0 0 0-283.306666 163.626667l-61.813334-35.68A432.906667 432.906667 0 0 1 493.333333 80.48zM129.44 312.693333l61.92 35.733334a359.573333 359.573333 0 0 0 0 327.146666l-61.92 35.733334a426.666667 426.666667 0 0 1 0-398.613334z m18.773333 430.88l61.813334-35.68a359.733333 359.733333 0 0 0 283.306666 163.626667v72a432.906667 432.906667 0 0 1-345.12-199.946667z m382.453334 199.946667v-72a359.733333 359.733333 0 0 0 283.306666-163.626667l62.24 35.946667a432 432 0 0 1-345.546666 199.68z" fill="#0985F6" /><path d="M512 50.666667A461.333333 461.333333 0 1 1 50.666667 512 461.813333 461.813333 0 0 1 512 50.666667m299.413333 276.16l6.56-3.786667L880 287.093333l7.466667-4.426666-4.48-7.04a440.746667 440.746667 0 0 0-352-203.36L522.666667 72.106667V160l7.573333 0.373333a352.96 352.96 0 0 1 277.013333 160l4.16 6.346667m-598.826666 0l4.16-6.346667a352.96 352.96 0 0 1 277.013333-160L501.333333 160V72.106667l-8.32 0.373333a441.386667 441.386667 0 0 0-351.52 203.626667l-4.533333 7.04 7.253333 4.213333 61.813334 35.68 6.56 3.786667M721.333333 378.666667l6.453334-3.733334 58.08-33.493333 7.306666-4.266667-4.64-7.093333a331.893333 331.893333 0 0 0-257.386666-148.16L522.666667 181.333333v82.88l7.413333 0.533334a246.4 246.4 0 0 1 187.093333 107.946666l4.16 6.133334m-418.666666 0l4.16-6.133334a246.4 246.4 0 0 1 187.093333-107.946666l7.413333-0.533334V181.333333l-8.48 0.48A332.533333 332.533333 0 0 0 235.946667 330.666667l-4.693334 7.093333 7.36 4.266667 57.6 33.226666 6.453334 3.733334m85.333333 49.386666l4.266667-5.706666a150.026667 150.026667 0 0 1 101.866666-58.666667l7.2-1.066667V285.493333l-8.693333 0.746667a226.026667 226.026667 0 0 0-166.453333 96L321.226667 389.333333l7.52 4.32 53.333333 30.773334 6.133333 3.573333m247.68 0l6.133334-3.573333 53.333333-30.773334 7.413333-4.266666-4.8-7.093334a216.8 216.8 0 0 0-166.72-96.16L522.666667 285.493333v77.44l7.04 0.8a150.026667 150.026667 0 0 1 101.866666 58.666667l4.266667 5.706667m262.346667 294.453333l3.84-7.413333a438.346667 438.346667 0 0 0 0-406.506667l-3.84-7.413333-7.2 4.213333L828.64 341.333333l-6.56 3.786667 3.466667 6.773333a352 352 0 0 1 0 320l-3.466667 6.773334 6.56 3.786666 62.346667 35.946667 7.2 4.213333m-771.946667-0.266666l7.2-4.16L195.36 682.666667l6.56-3.786667-3.466667-6.88a352 352 0 0 1 0-320l3.466667-6.773333-6.56-3.893334L133.333333 305.76l-7.2-4.16-3.893333 7.36a434.613333 434.613333 0 0 0 0 406.08l3.893333 7.36m677.333334-54.4l3.84-7.573333a331.306667 331.306667 0 0 0 0.32-297.013334l-3.84-7.573333-7.306667 4.213333-58.026667 33.493334-6.453333 3.733333 3.253333 6.666667a248.64 248.64 0 0 1 0 216.053333l-3.253333 6.72 6.453333 3.733333 57.706667 33.333334 7.306667 4.213333m-583.04 0l7.306666-4.213333 57.706667-33.333334 6.453333-3.733333-3.253333-6.72a248.64 248.64 0 0 1 0-216.053333l3.253333-6.666667-6.453333-3.733333-57.6-33.28-7.306667-4.213334-3.84 7.52a329.173333 329.173333 0 0 0 0 296.853334l3.84 7.573333M512 640a128 128 0 0 0 128-128 126.613333 126.613333 0 0 0-128-128 128 128 0 0 0 0 256m-201.493333-24l7.52-4.32 53.333333-30.773333 6.133333-3.573334-2.773333-6.666666a149.333333 149.333333 0 0 1 0-117.653334l2.773333-6.506666-6.133333-3.573334-53.333333-30.773333-7.52-4.32-3.733334 8.16a226.346667 226.346667 0 0 0 0 192.32l3.733334 7.84m402.986666 0l3.733334-7.84a224.426667 224.426667 0 0 0 21.333333-96 230.613333 230.613333 0 0 0-21.813333-96l-3.68-7.946667-7.573334 4.373334-52.96 30.56-6.133333 3.573333 2.773333 6.506667a149.333333 149.333333 0 0 1 0 117.653333l-2.773333 6.506667 6.133333 3.573333 53.333334 30.773333 7.52 4.32M522.666667 738.506667l8.693333-0.746667a226.026667 226.026667 0 0 0 166.453333-96l4.96-7.146667-7.52-4.32-53.333333-30.773333-6.133333-3.573333-4.266667 5.706666a150.026667 150.026667 0 0 1-101.866667 58.666667L522.666667 661.333333v77.44m-21.333334 0V661.333333l-7.04-0.8a150.026667 150.026667 0 0 1-101.866666-58.666666l-4.266667-5.706667-6.133333 3.573333-53.333334 30.773334-7.52 4.32 4.96 7.146666a226.026667 226.026667 0 0 0 166.453334 96l8.693333 0.746667M522.666667 842.666667l8.48-0.48A332.106667 332.106667 0 0 0 788.16 693.333333l4.693333-7.093333-7.36-4.213333-57.706666-33.333334-6.453334-3.733333-4.16 6.133333a246.4 246.4 0 0 1-187.093333 107.946667l-7.413333 0.533333V842.666667m-21.333334 0v-82.88l-7.413333-0.533334a246.4 246.4 0 0 1-187.093333-107.946666l-4.16-5.973334-6.453334 3.733334-57.706666 33.333333-7.36 4.213333 4.693333 7.093334a332.106667 332.106667 0 0 0 257.013333 148.533333L501.333333 842.666667m21.333334 109.333333l8.32-0.373333a440.746667 440.746667 0 0 0 352-203.36l4.48-7.04-7.253334-4.213334-62.24-35.946666-6.56-3.786667-4.16 6.346667a352.96 352.96 0 0 1-277.013333 160L522.666667 864v88m-21.333334 0V864l-7.573333-0.373333a352.96 352.96 0 0 1-277.013333-160l-4.16-6.346667-6.56 3.786667L144 736.64l-7.253333 4.213333 4.533333 7.04a441.386667 441.386667 0 0 0 351.52 203.626667l8.32 0.373333M512 42.666667a469.333333 469.333333 0 1 0 469.333333 469.333333A469.333333 469.333333 0 0 0 512 42.666667z m301.973333 273.44A359.733333 359.733333 0 0 0 530.666667 152.48v-72a432 432 0 0 1 345.546666 199.68l-62.24 35.946667z m-603.946666 0l-61.813334-35.68A432.906667 432.906667 0 0 1 493.333333 80.48v72a359.733333 359.733333 0 0 0-283.306666 163.626667zM723.786667 368A256 256 0 0 0 530.666667 256.746667V189.92a322.133333 322.133333 0 0 1 251.2 144.746667L723.786667 368z m-423.573334 0l-57.6-33.066667a323.253333 323.253333 0 0 1 250.666667-145.013333v66.826667A256 256 0 0 0 300.213333 368z m337.76 49.546667A157.546667 157.546667 0 0 0 530.666667 355.786667V294.133333a208.266667 208.266667 0 0 1 160.586666 92.8l-53.333333 30.773334z m-251.946666 0l-53.333334-30.72A218.666667 218.666667 0 0 1 493.333333 294.186667v61.6a157.546667 157.546667 0 0 0-107.306666 61.92z m508.96 293.866666l-62.346667-36a359.573333 359.573333 0 0 0 0-327.146666l62.346667-36a430.826667 430.826667 0 0 1 0 399.146666z m-765.546667 0a426.666667 426.666667 0 0 1 0-398.613333l61.92 35.733333a359.573333 359.573333 0 0 0 0 327.146667l-61.92 35.733333zM800 656.853333l-57.706667-33.333333a256.693333 256.693333 0 0 0 0-223.04l58.026667-33.493333a323.413333 323.413333 0 0 1-0.32 289.866666z m-576 0a321.173333 321.173333 0 0 1 0-289.653333l57.6 33.28a256.693333 256.693333 0 0 0 0 223.04L224 656.853333z m288-24.853333A120 120 0 1 1 632 512 120.106667 120.106667 0 0 1 512 632z m-197.973333-27.253333a218.186667 218.186667 0 0 1 0-185.493334l53.333333 30.773334a157.653333 157.653333 0 0 0 0 123.946666l-53.333333 30.773334z m395.946666 0l-53.333333-30.773334a157.653333 157.653333 0 0 0 0-123.946666l52.96-30.56A224 224 0 0 1 730.666667 512a217.76 217.76 0 0 1-20.693334 92.746667zM530.666667 729.813333v-61.6a157.546667 157.546667 0 0 0 107.306666-61.92l53.333334 30.72a218.666667 218.666667 0 0 1-160.586667 92.8z m-37.333334 0a218.666667 218.666667 0 0 1-160.586666-92.8l53.333333-30.72a157.546667 157.546667 0 0 0 107.253333 61.92v61.6z m37.333334 104.266667v-66.826667A256 256 0 0 0 723.786667 656l57.706666 33.333333a322.826667 322.826667 0 0 1-250.666666 144.906667z m-37.333334 0a322.826667 322.826667 0 0 1-250.666666-144.906667L300.213333 656a256 256 0 0 0 193.12 111.253333v66.826667z m37.333334 109.44v-72a359.733333 359.733333 0 0 0 283.306666-163.626667l62.24 35.946667a432 432 0 0 1-345.546666 199.68z m-37.333334 0a432.906667 432.906667 0 0 1-345.12-199.946667l61.813334-35.68a359.733333 359.733333 0 0 0 283.306666 163.626667v72z" fill="#006FC1" /></svg>