<?xml version="1.0" standalone="no"?><!DOCTYPE svg PUBLIC "-//W3C//DTD SVG 1.1//EN" "http://www.w3.org/Graphics/SVG/1.1/DTD/svg11.dtd"><svg class="icon" width="200px" height="200.00px" viewBox="0 0 1024 1024" version="1.1" xmlns="http://www.w3.org/2000/svg"><path d="M42.666667 170.666667h395.36v301.333333H42.666667z" fill="#4884EF" /><path d="M427.36 181.333333v280H53.333333V181.333333h374.026667m10.666667-10.666666H42.666667v301.333333h395.36V170.666667z" fill="#2866BF" /><path d="M438.026667 170.666667h241.973333v301.333333H438.026667z" fill="#FFA800" /><path d="M669.333333 181.333333v280H448.693333V181.333333h220.64m10.666667-10.666666H438.026667v301.333333h241.973333V170.666667z" fill="#E29103" /><path d="M680 472h150.666667V773.333333H680z" fill="#0985F6" /><path d="M820 482.666667V762.666667H690.666667V482.666667h129.333333m10.666667-10.666667H680V773.333333h150.666667V472z" fill="#006FC1" /><path d="M830.666667 472H981.333333V773.333333h-150.666666z" fill="#FFA800" /><path d="M970.666667 482.666667V762.666667h-129.333334V482.666667H970.666667m10.666666-10.666667h-150.666666V773.333333H981.333333V472z" fill="#E29103" /><path d="M438.026667 713.973333h241.973333V853.333333H438.026667z" fill="#4884EF" /><path d="M669.333333 724.64V842.666667H448.693333v-118.026667h220.64m10.666667-10.666667H438.026667V853.333333h241.973333v-139.36z" fill="#2866BF" /><path d="M438.026667 472h241.973333v241.973333H438.026667z" fill="#78CBF4" /><path d="M669.333333 482.666667v220.64H448.693333V482.666667h220.64m10.666667-10.666667H438.026667v241.973333h241.973333V472z" fill="#35A6C9" /><path d="M680 170.666667H981.333333v301.333333h-301.333333z" fill="#23B8BA" /><path d="M970.666667 181.333333v280h-280V181.333333H970.666667m10.666666-10.666666h-301.333333v301.333333H981.333333V170.666667z" fill="#14A59E" /><path d="M680 773.333333H981.333333v80h-301.333333z" fill="#23B8BA" /><path d="M970.666667 784v58.666667h-280v-58.666667H970.666667m10.666666-10.666667h-301.333333v80H981.333333v-80z" fill="#14A59E" /><path d="M42.666667 472h395.36V853.333333H42.666667z" fill="#0985F6" /><path d="M427.36 482.666667V842.666667H53.333333V482.666667h374.026667m10.666667-10.666667H42.666667V853.333333h395.36V472z" fill="#006FC1" /></svg>