<?xml version="1.0" standalone="no"?><!DOCTYPE svg PUBLIC "-//W3C//DTD SVG 1.1//EN" "http://www.w3.org/Graphics/SVG/1.1/DTD/svg11.dtd"><svg class="icon" width="200px" height="200.00px" viewBox="0 0 1024 1024" version="1.1" xmlns="http://www.w3.org/2000/svg"><path d="M510.453333 266.293333L252.106667 467.946667l51.573333 366.08 379.413333-48.746667 113.013334-324.213333-285.653334-194.773334z" fill="#FFA800" /><path d="M321.92 803.626667l345.226667-38.133334L768 484.96l-256.48 67.413333z" fill="#23B8BA" /><path d="M512 126.506667L106.666667 421.013333l154.666666 476.48h501.333334l154.666666-476.48z m-18.666667 400.586666L169.12 421.76 493.333333 186.186667z m-12.48 35.2L281.173333 837.333333 157.706667 457.333333z m30.293334 21.813334l200.533333 276.053333h-401.066667z m19.52-397.866667l324.16 235.466667L530.666667 527.04z m211.68 652.586667l-200.64-276.106667 324.586666-105.493333z" fill="#0985F6" /><path d="M512 136.373333l395.946667 287.68-151.253334 465.44H267.306667L116.053333 424.053333 512 136.373333m-10.666667 401.76V170.666667l-12.693333 9.066666-324.213333 235.573334-12.693334 9.226666 14.933334 4.853334L490.666667 534.72l10.666666 3.413333m21.333334 0l10.666666-3.413333 323.946667-105.386667 14.933333-4.853333-12.693333-9.226667-324.16-235.52L522.666667 170.666667v367.573333m222.4 318.133333l4.853333-14.933333 124-381.706667 4.853333-14.933333-14.933333 4.853333-324.586667 105.44-10.666666 3.413334 6.453333 8.906666L736 843.52l9.226667 12.693333m-466.666667-1.653333l9.226667-12.693333 199.68-274.88 6.506666-8.906667-10.666666-3.36L160 449.706667l-14.933333-4.853334 4.853333 14.933334 123.413333 379.84 4.853334 14.933333m16.48 13.6h432.533333l-9.28-12.693333-200.533333-276.053334-6.24-8.746666-6.506667 8.906666L304 855.466667l-9.226667 12.693333M512 126.506667L106.666667 421.013333l154.666666 476.48h501.333334l154.666666-476.48-405.333333-294.506666z m-18.666667 400.586666L169.12 421.76 493.333333 186.186667v340.906666z m37.333334 0V186.24l324.16 235.466667L530.666667 527.04z m211.68 311.786667l-200.64-276.106667 324.586666-105.493333-123.946666 381.6zM281.173333 837.333333L157.706667 457.333333l323.146666 104.96L281.173333 837.333333z m29.44 22.986667l200.533334-276.053333 200.533333 276.053333z" fill="#006FC1" /><path d="M512 312.48l239.466667 163.306667-96 275.413333-320 41.12-43.36-308.213333z m-1.493333-46.186667L252.106667 467.946667l51.573333 366.08 379.413333-48.746667 113.013334-324.213333-285.653334-194.773334z" fill="#0985F6" /><path d="M510.773333 276.213333L786.56 464 677.333333 777.973333l-366.826666 47.093334-49.813334-353.653334 250.08-195.2m-182.08 525.013334l7.84-1.226667 320-41.066667 4.906667-0.64 1.653333-4.693333 96-275.36 2.026667-5.813333-5.066667-3.466667-239.573333-163.093333-4.853333-3.253334-4.586667 3.573334-219.893333 171.626666-3.626667 2.826667 0.64 4.586667 43.413333 308.16 1.12 7.84m181.76-534.933334L252.106667 467.946667l51.573333 366.08 379.413333-48.746667 113.013334-324.213333-285.653334-194.773334z m-174.933333 526.026667l-43.413333-308.213333L512 312.48l239.466667 163.306667-96 275.413333-320 41.12z" fill="#006FC1" /></svg>