<?xml version="1.0" standalone="no"?><!DOCTYPE svg PUBLIC "-//W3C//DTD SVG 1.1//EN" "http://www.w3.org/Graphics/SVG/1.1/DTD/svg11.dtd"><svg class="icon" width="200px" height="200.00px" viewBox="0 0 1024 1024" version="1.1" xmlns="http://www.w3.org/2000/svg"><path d="M342.506667 742.666667L407.306667 917.333333h209.386666l64.8-174.666666H342.506667z" fill="#FFA800" /><path d="M666.133333 753.333333L609.28 906.666667H414.72L357.866667 753.333333h308.266666m15.36-10.666666H342.506667L407.306667 917.333333h209.386666l64.8-174.666666z" fill="#E29103" /><path d="M263.893333 530.666667l64.8 174.666666h366.666667l64.746667-174.666666H263.893333z" fill="#23B8BA" /><path d="M744.746667 541.333333L688 694.666667H336L279.253333 541.333333h465.493334m15.36-10.666666h-496l64.8 174.666666h366.613333l64.586667-174.666666z" fill="#14A59E" /><path d="M917.333333 106.666667H106.666667l64.8 174.666666h681.12L917.333333 106.666667z" fill="#0985F6" /><path d="M902.026667 117.333333l-56.906667 153.333334H178.88L121.973333 117.333333h780.053334m15.306666-10.666666H106.666667l64.746666 174.666666h681.173334L917.333333 106.666667z" fill="#006FC1" /><path d="M185.28 318.666667L250.026667 493.333333h523.946666l64.746667-174.666666H185.28z" fill="#0985F6" /><path d="M823.36 329.333333L766.506667 482.666667H257.493333L200.64 329.333333h622.72m15.36-10.666666H185.28L250.08 493.333333h523.893333l64.746667-174.666666z" fill="#006FC1" /></svg>