<?xml version="1.0" standalone="no"?><!DOCTYPE svg PUBLIC "-//W3C//DTD SVG 1.1//EN" "http://www.w3.org/Graphics/SVG/1.1/DTD/svg11.dtd"><svg class="icon" width="200px" height="200.00px" viewBox="0 0 1024 1024" version="1.1" xmlns="http://www.w3.org/2000/svg"><path d="M486.88 302.186667a210.613333 210.613333 0 0 1 191.093333 191.146666h259.146667A469.333333 469.333333 0 0 0 486.88 43.093333z" fill="#0985F6" /><path d="M497.546667 54.293333a458.666667 458.666667 0 0 1 428.373333 428.373334h-238.346667a220.746667 220.746667 0 0 0-190.026666-190.026667V54.293333m-10.666667-11.2v259.093334a210.613333 210.613333 0 0 1 191.093333 191.146666h259.146667A469.333333 469.333333 0 0 0 486.88 43.093333z" fill="#006FC1" /><path d="M449.546667 980.906667v-259.093334a209.813333 209.813333 0 0 1-116.48-48l-183.253334 182.986667a467.466667 467.466667 0 0 0 299.733334 124.106667z" fill="#FFA800" /><path d="M333.813333 688a219.146667 219.146667 0 0 0 105.066667 43.52v238.346667A458.666667 458.666667 0 0 1 165.333333 856.373333L333.813333 688m-0.746666-14.293333l-183.253334 183.093333a467.466667 467.466667 0 0 0 299.733334 124.106667v-259.093334a209.813333 209.813333 0 0 1-116.48-48z" fill="#E29103" /><path d="M603.36 673.546667a209.813333 209.813333 0 0 1-116.48 48v131.253333a339.786667 339.786667 0 0 0 209.066667-86.613333z" fill="#23B8BA" /><path d="M602.666667 688l77.76 77.76a331.466667 331.466667 0 0 1-182.773334 75.733333v-110.133333A218.933333 218.933333 0 0 0 602.666667 688m0.8-14.293333a209.813333 209.813333 0 0 1-116.48 48v131.093333a339.786667 339.786667 0 0 0 209.066666-86.613333l-92.586666-92.64z" fill="#14A59E" /><path d="M677.973333 530.666667a209.386667 209.386667 0 0 1-48 116.48L750.72 768a379.893333 379.893333 0 0 0 98.346667-237.333333z" fill="#0985F6" /><path d="M837.706667 541.333333a371.413333 371.413333 0 0 1-87.466667 211.2l-106.186667-106.186666a219.466667 219.466667 0 0 0 43.52-105.013334h150.133334m11.36-10.666666h-171.093334a209.386667 209.386667 0 0 1-48 116.48L750.72 768a379.893333 379.893333 0 0 0 98.346667-237.333333z" fill="#006FC1" /><path d="M257.546667 512a209.6 209.6 0 0 1 49.12-135.146667L185.706667 256a381.28 381.28 0 0 0 0 512l120.96-120.853333A209.6 209.6 0 0 1 257.546667 512z" fill="#0985F6" /><path d="M186.186667 271.466667l106.186666 106.186666a221.12 221.12 0 0 0 0 268.693334L186.186667 752.533333a370.666667 370.666667 0 0 1 0-481.066666m-0.48-15.466667a381.28 381.28 0 0 0 0 512l120.96-120.853333a210.453333 210.453333 0 0 1 0-270.293334L185.706667 256z" fill="#006FC1" /><path d="M183.786667 201.173333l149.333333 149.333334a209.813333 209.813333 0 0 1 116.48-48V91.146667a419.786667 419.786667 0 0 0-265.813333 110.026666z" fill="#FFA800" /><path d="M438.88 102.453333v190.186667A219.146667 219.146667 0 0 0 333.813333 336L199.306667 201.653333a410.666667 410.666667 0 0 1 239.573333-99.2m10.666667-11.306666a419.786667 419.786667 0 0 0-265.76 110.026666l149.333333 149.333334a209.813333 209.813333 0 0 1 116.48-48V91.146667z" fill="#E29103" /></svg>