<?xml version="1.0" standalone="no"?><!DOCTYPE svg PUBLIC "-//W3C//DTD SVG 1.1//EN" "http://www.w3.org/Graphics/SVG/1.1/DTD/svg11.dtd"><svg class="icon" width="200px" height="200.00px" viewBox="0 0 1024 1024" version="1.1" xmlns="http://www.w3.org/2000/svg"><path d="M826.666667 459.466667v323.093333H240v-490.666667c172.64-62.186667 194.24 288 358.293333 196.906667 60-32.906667 161.12-200.533333 228.373334-29.333333z" fill="#23B8BA" /><path d="M280.16 295.36c55.946667 0 94.56 55.626667 131.946667 109.493333s76.373333 110.026667 134.613333 110.026667a118.24 118.24 0 0 0 57.066667-16.533333c15.306667-8.48 32.48-24.586667 50.666666-41.546667 31.253333-29.28 66.72-62.453333 97.92-62.453333 24.746667 0 45.653333 21.973333 64 67.146666v310.4h-565.333333V299.84a103.04 103.04 0 0 1 29.173333-4.48m0-10.666667a117.333333 117.333333 0 0 0-39.84 7.413334v490.666666H826.666667V459.466667c-22.133333-56.106667-48-75.786667-74.666667-75.786667-54.773333 0-113.6 83.04-153.76 105.333333a106.666667 106.666667 0 0 1-51.893333 15.2c-108.106667 0-146.613333-219.52-266.666667-219.52z" fill="#14A59E" /><path d="M144 880V106.666667h-37.333333v810.666666h810.666666v-37.333333H144z" fill="#0985F6" /><path d="M136 114.666667v773.333333h773.333333v21.333333h-794.666666v-794.666666h21.333333M144 106.666667h-37.333333v810.666666h810.666666v-37.333333H144V106.666667z" fill="#006FC1" /><path d="M240.32 669.76v112.8H826.666667v-416c-172.64-62.186667-129.226667 282.666667-293.333334 191.52-59.466667-32.906667-225.6-59.52-293.013333 111.68z" fill="#FFA800" /><path d="M787.733333 369.92a99.68 99.68 0 0 1 28.426667 4.586667v397.386666h-565.333333V672c42.506667-105.333333 120.426667-127.466667 178.666666-127.466667a215.146667 215.146667 0 0 1 98.88 23.093334c20.32 11.253333 38.4 16.746667 55.253334 16.746666 53.333333 0 78.88-54.72 103.573333-107.68 25.546667-54.933333 49.706667-106.666667 100.533333-106.666666m0-10.666667c-111.306667 0-107.52 214.453333-204.106666 214.453333a104.053333 104.053333 0 0 1-50.026667-15.413333 226.453333 226.453333 0 0 0-104.106667-24.426667c-68.533333 0-147.573333 30.346667-189.173333 135.893334v112.8H826.666667v-416a116.266667 116.266667 0 0 0-39.093334-7.52z" fill="#E29103" /></svg>