<?xml version="1.0" standalone="no"?><!DOCTYPE svg PUBLIC "-//W3C//DTD SVG 1.1//EN" "http://www.w3.org/Graphics/SVG/1.1/DTD/svg11.dtd"><svg class="icon" width="200px" height="200.00px" viewBox="0 0 1024 1024" version="1.1" xmlns="http://www.w3.org/2000/svg"><path d="M144 880V106.666667h-37.333333v810.666666h810.666666v-37.333333H144z" fill="#0985F6" /><path d="M136 114.666667v773.333333h773.333333v21.333333h-794.666666v-794.666666h21.333333M144 106.666667h-37.333333v810.666666h810.666666v-37.333333H144V106.666667z" fill="#006FC1" /><path d="M475.413333 727.253333m-108.373333 0a108.373333 108.373333 0 1 0 216.746667 0 108.373333 108.373333 0 1 0-216.746667 0Z" fill="#FFA800" /><path d="M475.413333 629.333333a97.76 97.76 0 1 1-97.76 97.706667A97.813333 97.813333 0 0 1 475.413333 629.333333m0-10.666666a108.426667 108.426667 0 1 0 108.373334 108.373333A108.426667 108.426667 0 0 0 475.413333 618.666667z" fill="#E29103" /><path d="M366.986667 565.12m-46.08 0a46.08 46.08 0 1 0 92.16 0 46.08 46.08 0 1 0-92.16 0Z" fill="#FFA800" /><path d="M366.986667 527.04a38.133333 38.133333 0 1 1-38.08 38.293333 38.186667 38.186667 0 0 1 38.08-38.08m0-8a46.133333 46.133333 0 1 0 46.133333 46.08 46.08 46.08 0 0 0-46.133333-46.08z" fill="#E29103" /><path d="M761.76 295.626667m-58.666667 0a58.666667 58.666667 0 1 0 117.333334 0 58.666667 58.666667 0 1 0-117.333334 0Z" fill="#FFA800" /><path d="M761.76 244.96a50.666667 50.666667 0 1 1-50.666667 50.666667 50.72 50.72 0 0 1 50.666667-50.666667m0-8a58.666667 58.666667 0 1 0 58.666667 58.666667 58.666667 58.666667 0 0 0-58.666667-58.666667z" fill="#E29103" /><path d="M230.453333 425.013333m-45.333333 0a45.333333 45.333333 0 1 0 90.666667 0 45.333333 45.333333 0 1 0-90.666667 0Z" fill="#23B8BA" /><path d="M230.453333 387.68a37.333333 37.333333 0 1 1-37.333333 37.333333 37.333333 37.333333 0 0 1 37.333333-37.333333m0-8a45.333333 45.333333 0 1 0 45.333334 45.333333 45.333333 45.333333 0 0 0-45.333334-45.333333z" fill="#14A59E" /><path d="M684.906667 811.786667m-46.08 0a46.08 46.08 0 1 0 92.16 0 46.08 46.08 0 1 0-92.16 0Z" fill="#23B8BA" /><path d="M684.906667 773.653333a38.133333 38.133333 0 1 1-38.133334 38.133334 38.133333 38.133333 0 0 1 38.133334-38.133334m0-8a46.133333 46.133333 0 1 0 46.08 46.133334 46.133333 46.133333 0 0 0-46.08-46.133334z" fill="#14A59E" /><path d="M820.426667 650.506667m-44.746667 0a44.746667 44.746667 0 1 0 89.493333 0 44.746667 44.746667 0 1 0-89.493333 0Z" fill="#0985F6" /><path d="M820.426667 613.76A36.746667 36.746667 0 1 1 784 650.666667a36.8 36.8 0 0 1 36.693333-36.746667m0-8a44.746667 44.746667 0 1 0 44.746667 44.746667 44.746667 44.746667 0 0 0-44.746667-44.746667z" fill="#006FC1" /><path d="M623.36 500.106667m-58.666667 0a58.666667 58.666667 0 1 0 117.333334 0 58.666667 58.666667 0 1 0-117.333334 0Z" fill="#0985F6" /><path d="M623.36 449.44a50.666667 50.666667 0 1 1-50.666667 50.666667 50.773333 50.773333 0 0 1 50.666667-50.666667m0-8a58.666667 58.666667 0 1 0 58.666667 58.666667 58.666667 58.666667 0 0 0-58.666667-58.666667z" fill="#006FC1" /><path d="M490.88 276.213333m-44.746667 0a44.746667 44.746667 0 1 0 89.493334 0 44.746667 44.746667 0 1 0-89.493334 0Z" fill="#0985F6" /><path d="M490.666667 239.466667a36.746667 36.746667 0 1 1-36.693334 36.746666A36.8 36.8 0 0 1 490.666667 239.466667m0-8a44.746667 44.746667 0 1 0 44.746666 44.746666A44.746667 44.746667 0 0 0 490.666667 231.466667z" fill="#006FC1" /><path d="M230.453333 799.253333m-32 0a32 32 0 1 0 64 0 32 32 0 1 0-64 0Z" fill="#0985F6" /><path d="M230.453333 775.253333a24 24 0 1 1-24 24 24 24 0 0 1 24-24m0-8a32 32 0 1 0 32 32 32 32 0 0 0-32-32z" fill="#006FC1" /></svg>