<?xml version="1.0" standalone="no"?><!DOCTYPE svg PUBLIC "-//W3C//DTD SVG 1.1//EN" "http://www.w3.org/Graphics/SVG/1.1/DTD/svg11.dtd"><svg class="icon" width="200px" height="200.00px" viewBox="0 0 1024 1024" version="1.1" xmlns="http://www.w3.org/2000/svg"><path d="M819.946667 198.933333a108.533333 108.533333 0 0 1 9.973333 105.066667c-45.066667 108.426667-36.96 260.906667 19.253333 362.666667a233.813333 233.813333 0 0 1 29.493334 88.106666c4.586667 42.666667-2.56 75.146667-21.333334 96C835.36 874.666667 800 880 774.613333 880a255.413333 255.413333 0 0 1-133.333333-40.853333c-76.32-50.506667-147.893333-56.32-195.146667-56.32-25.28 0-49.226667 1.813333-72.373333 3.626666-20.64 1.6-40.16 3.093333-58.666667 3.093334-39.946667 0-67.093333-7.573333-90.666666-25.28-43.253333-34.56-71.893333-83.413333-78.666667-134.133334-5.333333-40.106667 0.586667-97.866667 26.293333-129.866666 16-20.266667 43.466667-32.373333 72.32-45.173334 11.84-5.333333 24.106667-10.666667 35.946667-16.906666 198.24-103.733333 257.44-164.693333 305.066667-223.04 22.24-27.2 34.453333-42.186667 77.493333-60.053334a149.813333 149.813333 0 0 1 29.92-8.96 139.413333 139.413333 0 0 1 44.16-1.333333 111.626667 111.626667 0 0 1 35.786667 11.733333 131.04 131.04 0 0 1 41.013333 34.293334c2.24 2.666667 4.266667 5.333333 6.186667 8.106666z m-171.306667-78.293333C518.613333 174.72 608 224.586667 263.093333 405.333333c-40.373333 21.333333-90.133333 34.506667-120.053333 71.786667-32.8 40.853333-40.906667 107.786667-34.186667 158.133333 8.373333 62.986667 43.413333 119.413333 92.8 158.72 34.986667 26.666667 72.96 33.12 113.6 33.12s84.64-6.72 130.933334-6.72c54.666667 0 112.906667 9.333333 174.506666 50.08a291.253333 291.253333 0 0 0 153.92 46.88c82.773333 0 154.133333-45.013333 141.173334-166.773333a270.293333 270.293333 0 0 0-33.92-102.24c-49.76-89.92-58.666667-231.626667-17.493334-330.186667a152.32 152.32 0 0 0 11.68-50.453333 145.706667 145.706667 0 0 0-5.706666-48 151.253333 151.253333 0 0 0-20.533334-42.986667 159.146667 159.146667 0 0 0-32.746666-34.933333 163.84 163.84 0 0 0-42.293334-24.426667 161.546667 161.546667 0 0 0-49.386666-10.666666 152.533333 152.533333 0 0 0-32.96 2.933333 289.6 289.6 0 0 0-29.226667 5.973333 116.266667 116.266667 0 0 0-14.56 5.066667z" fill="#0985F6" /><path d="M720.96 114.773333h4a155.413333 155.413333 0 0 1 46.933333 10.026667 153.386667 153.386667 0 0 1 40.213334 22.933333 151.84 151.84 0 0 1 31.146666 33.173334 143.466667 143.466667 0 0 1 19.413334 40.693333 135.786667 135.786667 0 0 1 5.333333 45.546667 145.12 145.12 0 0 1-11.04 48c-41.28 99.2-33.6 244.106667 17.866667 337.066666a262.293333 262.293333 0 0 1 32.96 99.2c5.333333 51.52-4.16 91.413333-28.586667 118.56-29.28 32.586667-73.066667 39.413333-104.64 39.413334a282.026667 282.026667 0 0 1-149.333333-45.76c-68.906667-45.6-131.84-51.413333-178.933334-51.413334-24.16 0-47.52 1.813333-70.133333 3.52-21.333333 1.653333-41.28 3.2-60.8 3.2-47.04 0-79.573333-9.44-108.586667-31.413333-49.333333-39.2-82.133333-95.146667-89.866666-153.493333-8.96-66.133333 9.866667-124.053333 32.426666-152.16 20.693333-25.76 52.533333-39.893333 83.306667-53.333334 11.413333-5.333333 23.2-10.346667 34.24-16 209.333333-109.493333 259.413333-170.666667 295.946667-215.573333 22.72-27.786667 39.146667-48 88.906666-68.586667a107.68 107.68 0 0 1 13.6-4.426666 269.013333 269.013333 0 0 1 28.426667-5.813334h0.586667a167.52 167.52 0 0 1 26.666666-2.88m-405.706666 682.666667c18.72 0 38.346667-1.546667 59.2-3.146667 22.986667-1.76 46.72-3.573333 71.733333-3.573333 46.186667 0 116.213333 5.706667 190.72 54.986667a263.68 263.68 0 0 0 137.706667 42.186666c27.2 0 64.746667-5.6 88.8-32.373333 20.213333-22.453333 28.053333-56.8 23.253333-101.973333a242.826667 242.826667 0 0 0-30.453333-91.146667c-55.2-99.733333-63.146667-249.28-18.88-355.626667a116.48 116.48 0 0 0-10.666667-112.533333c-2.08-2.933333-4.213333-5.813333-6.4-8.533333a138.933333 138.933333 0 0 0-43.733333-36.853334 120.906667 120.906667 0 0 0-38.346667-12.586666 124.586667 124.586667 0 0 0-18.133333-1.28 157.92 157.92 0 0 0-28.64 2.72 151.466667 151.466667 0 0 0-31.573334 9.44c-44.853333 18.613333-58.293333 35.093333-80.586666 62.4-47.093333 57.76-105.706667 118.026667-302.613334 221.066666C265.12 437.333333 252.96 442.666667 241.226667 448c-29.76 13.226667-57.866667 25.706667-75.306667 47.466667-19.04 23.733333-35.946667 76.426667-28 135.946666 7.04 52.693333 36.8 103.466667 81.813333 139.413334 25.12 18.88 53.653333 26.666667 95.52 26.666666M720.96 106.666667a176.853333 176.853333 0 0 0-28.533333 3.093333 289.6 289.6 0 0 0-29.226667 5.973333 116.266667 116.266667 0 0 0-14.56 4.8C518.613333 174.72 608 224.586667 263.093333 405.333333c-40.373333 21.333333-90.133333 34.506667-120.053333 71.786667-32.8 40.853333-40.906667 107.786667-34.186667 158.133333 8.373333 62.986667 43.413333 119.413333 92.8 158.72 34.986667 26.666667 72.96 33.12 113.6 33.12s84.64-6.72 130.933334-6.72c54.666667 0 112.906667 9.333333 174.506666 50.08a291.253333 291.253333 0 0 0 153.92 46.88c82.773333 0 154.133333-45.013333 141.173334-166.773333a270.293333 270.293333 0 0 0-33.92-102.24c-49.76-89.92-58.666667-231.626667-17.493334-330.186667a152.32 152.32 0 0 0 11.68-50.453333 145.706667 145.706667 0 0 0-5.706666-48 151.253333 151.253333 0 0 0-20.533334-42.986667 159.146667 159.146667 0 0 0-32.746666-34.933333 163.253333 163.253333 0 0 0-42.346667-24.426667 160.853333 160.853333 0 0 0-49.333333-10.666666h-4.426667zM315.253333 789.333333c-39.946667 0-67.093333-7.573333-90.666666-25.28-43.253333-34.56-71.893333-83.413333-78.666667-134.133333-5.333333-40.106667 0.586667-97.866667 26.293333-129.866667 16-20.266667 43.466667-32.373333 72.32-45.173333 11.84-5.333333 24.106667-10.666667 35.946667-16.906667 198.24-103.733333 257.44-164.693333 305.066667-223.04 22.24-27.2 34.453333-42.186667 77.493333-60.053333a149.813333 149.813333 0 0 1 29.92-8.96 153.12 153.12 0 0 1 27.2-2.56 112 112 0 0 1 52.746667 12.96 131.04 131.04 0 0 1 41.013333 34.293333c2.08 2.666667 4.16 5.333333 6.08 8.106667A108.533333 108.533333 0 0 1 829.92 304c-45.066667 108.426667-36.96 260.906667 19.253333 362.666667a233.813333 233.813333 0 0 1 29.493334 88.106666c4.586667 42.666667-2.56 75.146667-21.333334 96C835.36 874.666667 800 880 774.613333 880a255.413333 255.413333 0 0 1-133.333333-40.853333c-76.32-50.506667-147.893333-56.32-195.146667-56.32-25.28 0-49.226667 1.813333-72.373333 3.626666-20.64 1.6-40.16 3.093333-58.666667 3.093334z" fill="#006FC1" /><path d="M727.466667 512c-27.306667-44 96-357.333333-70.24-280.96C530.4 289.44 495.306667 338.666667 519.146667 409.6s104.853333 109.866667 82.4 192.693333c-29.28 108.586667-35.52 180.96 46.08 210.293334 46.08 16.533333 169.12 2.293333 180.906666-38.24 15.306667-52.48-35.68-156.96-101.066666-262.346667z" fill="#FFA800" /><path d="M212.853333 542.026667c-23.946667 27.466667-32.533333 128.586667 26.666667 172.906666 25.973333 19.413333 116.64 22.933333 161.386667 6.186667 128.32-48 144.853333-85.706667 128.266666-158.986667-20.64-91.573333-92.48-49.066667-119.093333-49.386666-63.946667-0.746667-113.6-66.506667-197.226667 29.28z" fill="#23B8BA" /><path d="M701.386667 229.76a25.973333 25.973333 0 0 1 21.333333 8.906667c22.506667 26.666667 9.92 104.8 0 167.733333-9.6 59.84-14.506667 94.506667-4.16 111.2 97.44 157.6 108.106667 225.013333 99.733333 253.76-5.76 19.893333-61.546667 37.333333-119.306666 37.333333a151.733333 151.733333 0 0 1-48-6.133333c-71.413333-25.706667-69.333333-86.666667-39.413334-197.333333 15.36-57.013333-13.813333-95.093333-42.026666-131.946667-16-20.746667-32-42.133333-40.586667-66.986667-18.72-55.893333-3.146667-103.04 132.48-165.333333a99.733333 99.733333 0 0 1 39.68-10.986667m0-10.666666a109.76 109.76 0 0 0-44.16 11.946666C530.4 289.44 495.306667 338.666667 519.146667 409.6s104.853333 109.866667 82.4 192.693333c-29.28 108.586667-35.52 180.96 46.08 210.293334a162.08 162.08 0 0 0 51.36 6.773333c53.813333 0 121.013333-15.573333 129.546666-45.013333 15.306667-52.48-35.68-156.96-101.066666-262.346667-24.373333-39.253333 70.933333-292.906667-26.08-292.906667z" fill="#E29103" /><path d="M304 500.693333c16.906667 0 33.066667 5.333333 50.186667 10.666667s36 11.68 56.106666 11.893333H410.666667a110.72 110.72 0 0 0 23.84-4.053333 152.693333 152.693333 0 0 1 34.88-5.333333c17.813333 0 39.573333 5.76 49.706666 50.666666 14.346667 63.466667 7.04 98.666667-121.6 146.666667a218.666667 218.666667 0 0 1-71.306666 10.026667c-36 0-68.16-5.973333-80-14.773334-29.813333-22.24-37.813333-58.666667-39.946667-78.72-3.626667-34.506667 4.586667-67.093333 14.72-78.666666 37.76-43.36 65.44-48.373333 83.04-48.373334m0-10.666666c-26.666667 0-55.893333 11.733333-91.04 52-23.946667 27.466667-32.533333 128.586667 26.666667 172.906666 14.72 10.986667 50.24 16.906667 86.346666 16.906667 27.626667 0 55.68-3.466667 75.04-10.666667 128.32-48 144.853333-85.706667 128.266667-158.986666-10.666667-47.573333-35.253333-58.986667-60.106667-58.986667-22.826667 0-45.866667 9.6-58.666666 9.6-37.333333-0.426667-69.333333-22.72-106.666667-22.72z" fill="#14A59E" /></svg>