<?xml version="1.0" standalone="no"?><!DOCTYPE svg PUBLIC "-//W3C//DTD SVG 1.1//EN" "http://www.w3.org/Graphics/SVG/1.1/DTD/svg11.dtd"><svg class="icon" width="200px" height="200.00px" viewBox="0 0 1024 1024" version="1.1" xmlns="http://www.w3.org/2000/svg"><path d="M144 880V106.666667h-37.333333v810.666666h810.666666v-37.333333H144z" fill="#0985F6" /><path d="M136 114.666667v773.333333h773.333333v21.333333h-794.666666v-794.666666h21.333333M144 106.666667h-37.333333v810.666666h810.666666v-37.333333H144V106.666667z" fill="#006FC1" /><path d="M270.133333 624.533333m-32 0a32 32 0 1 0 64 0 32 32 0 1 0-64 0Z" fill="#0985F6" /><path d="M270.133333 600.533333a24 24 0 1 1-24 24 24.053333 24.053333 0 0 1 24-24m0-8a32 32 0 1 0 32 32 32 32 0 0 0-32-32z" fill="#006FC1" /><path d="M380.693333 760.373333m-32 0a32 32 0 1 0 64 0 32 32 0 1 0-64 0Z" fill="#0985F6" /><path d="M380.693333 736.373333a24 24 0 1 1-24 24 24.053333 24.053333 0 0 1 24-24m0-8a32 32 0 1 0 32 32 32 32 0 0 0-32-32z" fill="#006FC1" /><path d="M436.693333 666.666667m-32 0a32 32 0 1 0 64 0 32 32 0 1 0-64 0Z" fill="#23B8BA" /><path d="M436.693333 642.666667a24 24 0 1 1-24 24 24.053333 24.053333 0 0 1 24-24m0-8a32 32 0 1 0 32 32 32 32 0 0 0-32-32z" fill="#14A59E" /><path d="M444.693333 496.426667m-32 0a32 32 0 1 0 64 0 32 32 0 1 0-64 0Z" fill="#23B8BA" /><path d="M444.693333 472.426667a24 24 0 1 1-24 24 24.053333 24.053333 0 0 1 24-24m0-8a32 32 0 1 0 32 32 32 32 0 0 0-32-32z" fill="#14A59E" /><path d="M734.72 674.666667m-32 0a32 32 0 1 0 64 0 32 32 0 1 0-64 0Z" fill="#23B8BA" /><path d="M734.72 650.666667a24 24 0 1 1-24 24 24.053333 24.053333 0 0 1 24-24m0-8a32 32 0 1 0 32 32 32 32 0 0 0-32-32z" fill="#14A59E" /><path d="M356.693333 342.56m-32 0a32 32 0 1 0 64 0 32 32 0 1 0-64 0Z" fill="#0985F6" /><path d="M356.693333 318.56a24 24 0 1 1-24 24 24.053333 24.053333 0 0 1 24-24m0-8a32 32 0 1 0 32 32 32 32 0 0 0-32-32z" fill="#006FC1" /><path d="M670.72 512.8m-32 0a32 32 0 1 0 64 0 32 32 0 1 0-64 0Z" fill="#FFA800" /><path d="M670.72 488.8a24 24 0 1 1-24 24 24.053333 24.053333 0 0 1 24-24m0-8a32 32 0 1 0 32 32 32 32 0 0 0-32-32z" fill="#E29103" /><path d="M564.266667 736.373333m-32 0a32 32 0 1 0 64 0 32 32 0 1 0-64 0Z" fill="#FFA800" /><path d="M564.266667 712.373333a24 24 0 1 1-24 24 24 24 0 0 1 24-24m0-8a32 32 0 1 0 32 32 32 32 0 0 0-32-32z" fill="#E29103" /><path d="M833.013333 426.133333m-32 0a32 32 0 1 0 64 0 32 32 0 1 0-64 0Z" fill="#FFA800" /><path d="M833.013333 402.133333a24 24 0 1 1-24 24 24.053333 24.053333 0 0 1 24-24m0-8a32 32 0 1 0 32 32 32 32 0 0 0-32-32z" fill="#E29103" /><path d="M734.72 254.56m-32 0a32 32 0 1 0 64 0 32 32 0 1 0-64 0Z" fill="#FFA800" /><path d="M734.72 230.56a24 24 0 1 1-24 24 24.053333 24.053333 0 0 1 24-24m0-8a32 32 0 1 0 32 32 32 32 0 0 0-32-32z" fill="#E29103" /><path d="M532.266667 385.066667m-32 0a32 32 0 1 0 64 0 32 32 0 1 0-64 0Z" fill="#FFA800" /><path d="M532.266667 361.066667a24 24 0 1 1-24 24 23.946667 23.946667 0 0 1 24-24m0-8a32 32 0 1 0 32 32 32 32 0 0 0-32-32z" fill="#E29103" /><path d="M825.013333 775.253333m-32 0a32 32 0 1 0 64 0 32 32 0 1 0-64 0Z" fill="#0985F6" /><path d="M825.013333 751.253333a24 24 0 1 1-24 24 24.053333 24.053333 0 0 1 24-24m0-8a32 32 0 1 0 32 32 32 32 0 0 0-32-32z" fill="#006FC1" /><path d="M224.373333 792.373333m-32 0a32 32 0 1 0 64 0 32 32 0 1 0-64 0Z" fill="#0985F6" /><path d="M224.373333 768.373333a24 24 0 1 1-24 24 24.053333 24.053333 0 0 1 24-24m0-8a32 32 0 1 0 32 32 32 32 0 0 0-32-32z" fill="#006FC1" /></svg>