<?xml version="1.0" standalone="no"?><!DOCTYPE svg PUBLIC "-//W3C//DTD SVG 1.1//EN" "http://www.w3.org/Graphics/SVG/1.1/DTD/svg11.dtd"><svg class="icon" width="200px" height="200.00px" viewBox="0 0 1024 1024" version="1.1" xmlns="http://www.w3.org/2000/svg"><path d="M440 417.76v-37.333333H192V218.666667h-37.333333v650.666666h285.333333v-37.333333H192v-188.426667h248v-37.333333H192V417.76h248z" fill="#0985F6" /><path d="M184 226.666667v161.76H432v21.333333H184v204.48H432v21.333333H184v204.426667H432v21.333333H162.666667v-634.666666h21.333333M192 218.666667h-37.333333v650.666666h285.333333v-37.333333H192v-188.426667h248v-37.333333H192V417.76h248v-37.333333H192V218.666667z" fill="#006FC1" /><path d="M106.666667 106.666667h133.333333v133.333333H106.666667z" fill="#0985F6" /><path d="M229.333333 117.333333v112H117.333333V117.333333h112m10.666667-10.666666H106.666667v133.333333h133.333333V106.666667z" fill="#006FC1" /><path d="M277.333333 106.666667h640v133.333333H277.333333z" fill="#0985F6" /><path d="M906.666667 117.333333v112H288V117.333333h618.666667m10.666666-10.666666H277.333333v133.333333h640V106.666667z" fill="#006FC1" /><path d="M402.88 332.426667H917.333333v133.333333H402.88z" fill="#0985F6" /><path d="M906.666667 343.093333v112H413.546667v-112H906.666667m10.666666-10.666666H402.88v133.333333H917.333333v-133.333333z" fill="#006FC1" /><path d="M402.88 558.24H917.333333v133.333333H402.88z" fill="#23B8BA" /><path d="M906.666667 568.906667v112H413.546667v-112H906.666667m10.666666-10.666667H402.88v133.333333H917.333333v-133.333333z" fill="#14A59E" /><path d="M402.88 784H917.333333v133.333333H402.88z" fill="#FFA800" /><path d="M906.666667 794.666667v112H413.546667v-112H906.666667m10.666666-10.666667H402.88v133.333333H917.333333v-133.333333z" fill="#E29103" /></svg>