<?xml version="1.0" standalone="no"?><!DOCTYPE svg PUBLIC "-//W3C//DTD SVG 1.1//EN" "http://www.w3.org/Graphics/SVG/1.1/DTD/svg11.dtd"><svg class="icon" width="200px" height="200.00px" viewBox="0 0 1024 1024" version="1.1" xmlns="http://www.w3.org/2000/svg"><path d="M144 880V106.666667h-37.333333v810.666666h810.666666v-37.333333H144z" fill="#0985F6" /><path d="M136 114.666667v773.333333h773.333333v21.333333h-794.666666v-794.666666h21.333333M144 106.666667h-37.333333v810.666666h810.666666v-37.333333H144V106.666667z" fill="#006FC1" /><path d="M825.706667 238.613333v96H232.16v-96z" fill="#FFA800" /><path d="M815.04 324H242.826667v-74.666667h572.213333v74.666667m10.666667 10.666667v-96H232.16v96z" fill="#E29103" /><path d="M696.32 398.666667v96H232.16v-96z" fill="#23B8BA" /><path d="M685.653333 484h-442.666666v-74.666667h442.666666v74.666667m10.666667 10.666667v-96h-464v96z" fill="#14A59E" /><path d="M825.706667 558.613333v96H232.16v-96z" fill="#FFA800" /><path d="M815.04 644H242.826667v-74.666667h572.213333v74.666667m10.666667 10.666667v-96H232.16v96z" fill="#E29103" /><path d="M554.773333 718.613333v96H232.16v-96z" fill="#23B8BA" /><path d="M544 804H242.826667v-74.666667H544v74.666667m10.666667 10.666667v-96H232.16v96z" fill="#14A59E" /></svg>