<?xml version="1.0" standalone="no"?><!DOCTYPE svg PUBLIC "-//W3C//DTD SVG 1.1//EN" "http://www.w3.org/Graphics/SVG/1.1/DTD/svg11.dtd"><svg class="icon" width="200px" height="200.00px" viewBox="0 0 1024 1024" version="1.1" xmlns="http://www.w3.org/2000/svg"><path d="M520.213333 165.333333A58.666667 58.666667 0 1 0 442.666667 220.906667V406.4h37.333333V220.906667A58.666667 58.666667 0 0 0 520.213333 165.333333z" fill="#FFA800" /><path d="M461.546667 114.666667a50.666667 50.666667 0 0 1 16 98.666666l-5.333334 1.813334V398.4h-21.333333V215.146667l-5.333333-1.813334a50.666667 50.666667 0 0 1 16-98.666666m0-8A58.666667 58.666667 0 0 0 442.666667 220.906667V406.4h37.333333V220.906667A58.666667 58.666667 0 0 0 461.546667 106.666667z" fill="#E29103" /><path d="M379.093333 636.213333l-27.573333-25.226666-145.44 159.2a58.666667 58.666667 0 1 0 27.52 25.173333z" fill="#FFA800" /><path d="M352 622.293333l16 14.4-140.266667 153.28-3.893333 4.266667 2.773333 5.013333a50.56 50.56 0 1 1-23.946666-21.76l5.333333 2.346667 3.84-4.266667L352 622.293333m-0.48-11.306666l-145.44 159.2a58.666667 58.666667 0 1 0 27.52 25.173333l145.493333-159.146667-27.573333-25.226666z" fill="#E29103" /><path d="M390.666667 506.933333L223.52 426.666667a58.666667 58.666667 0 1 0-16 33.653333l167.146667 80.32z" fill="#0985F6" /><path d="M165.333333 368.64a49.813333 49.813333 0 0 1 21.92 5.066667 50.506667 50.506667 0 0 1 28.266667 51.893333l-0.693333 5.706667 5.333333 2.506666 160 76.853334-9.226667 19.253333-160-76.906667-5.333333-2.453333-4.053333 4.106667A50.933333 50.933333 0 0 1 165.333333 470.026667a50.133333 50.133333 0 0 1-21.866666-5.013334A50.666667 50.666667 0 0 1 165.333333 368.64m0-8a58.666667 58.666667 0 0 0-25.44 111.573333A58.026667 58.026667 0 0 0 165.333333 478.026667a59.04 59.04 0 0 0 42.08-17.76l167.146667 80.32 16-33.653334L223.52 426.666667A58.666667 58.666667 0 0 0 165.333333 360.64z" fill="#006FC1" /><path d="M753.92 313.6a58.666667 58.666667 0 0 0-99.626667 58.986667L512 491.52l23.946667 28.64 142.293333-118.933333a58.666667 58.666667 0 0 0 75.68-87.626667z" fill="#0985F6" /><path d="M708.853333 300.586667A50.666667 50.666667 0 1 1 682.666667 394.666667l-4.906667-2.986667-4.426667 3.68-136.373333 113.546667-13.706667-16.373334L659.413333 378.666667l4.426667-3.68-2.133333-5.333334a50.613333 50.613333 0 0 1 47.146666-69.333333m0-8a58.666667 58.666667 0 0 0-54.56 80L512 491.52l23.946667 28.64 142.293333-118.933333a58.986667 58.986667 0 0 0 30.773333 8.64 58.133333 58.133333 0 0 0 37.333334-13.6 58.666667 58.666667 0 0 0-37.653334-103.68z" fill="#006FC1" /><path d="M677.333333 833.493333a58.666667 58.666667 0 0 0-59.946666-33.066666l-79.466667-167.573334-33.76 16 79.52 167.573334a58.666667 58.666667 0 1 0 93.653333 17.066666z" fill="#23B8BA" /><path d="M534.08 643.52l76.106667 160.32 2.453333 5.333333 5.706667-0.693333a56.106667 56.106667 0 0 1 5.973333-0.373333 50.826667 50.826667 0 0 1 45.813333 28.96 50.666667 50.666667 0 0 1-45.76 72.373333 50.666667 50.666667 0 0 1-35.146666-87.146667l4.106666-4-2.453333-5.333333-76.053333-160.266667 19.253333-9.173333m3.84-10.666667l-33.76 16 79.52 167.573334a58.666667 58.666667 0 1 0 40.64-16.426667 60.48 60.48 0 0 0-6.933333 0.426667l-79.466667-167.573334z" fill="#14A59E" /><path d="M878.4 594.133333a58.666667 58.666667 0 0 0-65.76 19.2l-227.413333-81.653333-12.586667 35.146667L800 648.213333a58.666667 58.666667 0 1 0 78.4-54.08z" fill="#23B8BA" /><path d="M590.08 541.92l219.84 78.666667 5.333333 1.973333 3.573334-4.533333a51.04 51.04 0 0 1 39.786666-19.306667 50.666667 50.666667 0 0 1 0 101.333333 50.986667 50.986667 0 0 1-17.12-2.986666 50.453333 50.453333 0 0 1-33.493333-48.693334v-5.76l-5.333333-1.92-219.84-78.72 7.2-20.053333m-4.853334-10.24l-12.586666 35.146667L800 648.213333a58.666667 58.666667 0 0 0 38.826667 56.426667 59.626667 59.626667 0 0 0 19.786666 3.413333 58.666667 58.666667 0 0 0 19.733334-113.92 58.666667 58.666667 0 0 0-65.706667 19.2l-227.413333-81.653333z" fill="#14A59E" /><path d="M461.546667 549.6m-154.293334 0a154.293333 154.293333 0 1 0 308.586667 0 154.293333 154.293333 0 1 0-308.586667 0Z" fill="#0985F6" /><path d="M461.546667 406.026667a143.626667 143.626667 0 1 1-143.573334 143.573333 144 144 0 0 1 143.573334-143.573333m0-10.666667a154.293333 154.293333 0 1 0 154.293333 154.24 154.24 154.24 0 0 0-154.293333-154.24z" fill="#006FC1" /></svg>