<?xml version="1.0" standalone="no"?><!DOCTYPE svg PUBLIC "-//W3C//DTD SVG 1.1//EN" "http://www.w3.org/Graphics/SVG/1.1/DTD/svg11.dtd"><svg class="icon" width="200px" height="200.00px" viewBox="0 0 1024 1024" version="1.1" xmlns="http://www.w3.org/2000/svg"><path d="M493.333333 42.666667h37.333334v938.666666h-37.333334z" fill="#0985F6" /><path d="M520 53.333333v917.333334h-16V53.333333h16m10.666667-10.666666h-37.333334v938.666666h37.333334V42.666667z" fill="#006FC1" /><path d="M408.213333 42.666667H493.333333v96H408.213333z" fill="#FFA800" /><path d="M482.666667 53.333333v74.666667h-64V53.333333h64m10.666666-10.666666h-85.333333v96h85.333333V42.666667z" fill="#E29103" /><path d="M530.666667 42.666667h85.12v96H530.666667z" fill="#23B8BA" /><path d="M605.12 53.333333v74.666667h-64V53.333333h64m10.666667-10.666666h-85.333334v96h85.333334V42.666667z" fill="#14A59E" /><path d="M379.84 211.2H493.333333v96H379.84z" fill="#FFA800" /><path d="M482.666667 221.866667v74.666666H390.506667v-74.666666H482.666667m10.666666-10.666667H379.84v96H493.333333v-96z" fill="#E29103" /><path d="M530.666667 211.2H853.333333v96H530.666667z" fill="#23B8BA" /><path d="M842.666667 221.866667v74.666666h-301.333334v-74.666666H842.666667m10.666666-10.666667H530.666667v96H853.333333v-96z" fill="#14A59E" /><path d="M530.666667 379.733333h134.08v96H530.666667z" fill="#23B8BA" /><path d="M654.08 390.4v74.666667H541.333333v-74.666667h112.746667m10.666667-10.666667H530.666667v96h134.08v-96z" fill="#14A59E" /><path d="M530.666667 548.266667h266.933333v96H530.666667z" fill="#23B8BA" /><path d="M786.933333 558.933333v74.666667H541.333333v-74.666667h245.6m10.666667-10.666666H530.666667v96h266.933333v-96z" fill="#14A59E" /><path d="M530.666667 716.8h134.08v96H530.666667z" fill="#23B8BA" /><path d="M654.08 727.466667v74.666666H541.333333v-74.666666h112.746667m10.666667-10.666667H530.666667v96h134.08v-96z" fill="#14A59E" /><path d="M530.666667 885.333333h285.493333v96H530.666667z" fill="#23B8BA" /><path d="M805.333333 896v74.666667h-264v-74.666667H805.333333m10.666667-10.666667H530.666667v96H816v-96z" fill="#14A59E" /><path d="M170.666667 379.733333h322.666666v96H170.666667z" fill="#FFA800" /><path d="M482.666667 390.4v74.666667H181.333333v-74.666667h301.333334m10.666666-10.666667H170.666667v96h322.666666v-96z" fill="#E29103" /><path d="M243.893333 548.266667H493.333333v96H243.893333z" fill="#FFA800" /><path d="M482.666667 558.933333v74.666667H254.56v-74.666667H482.666667m10.666666-10.666666H243.893333v96H493.333333v-96z" fill="#E29103" /><path d="M343.2 716.8H493.333333v96H343.2z" fill="#FFA800" /><path d="M482.666667 727.466667v74.666666H353.866667v-74.666666H482.666667m10.666666-10.666667H343.2v96H493.333333v-96z" fill="#E29103" /><path d="M221.76 885.333333H493.333333v96H221.76z" fill="#FFA800" /><path d="M482.666667 896v74.666667H232.426667v-74.666667H482.666667m10.666666-10.666667H221.76v96H493.333333v-96z" fill="#E29103" /></svg>