<?xml version="1.0" standalone="no"?><!DOCTYPE svg PUBLIC "-//W3C//DTD SVG 1.1//EN" "http://www.w3.org/Graphics/SVG/1.1/DTD/svg11.dtd"><svg class="icon" width="200px" height="200.00px" viewBox="0 0 1024 1024" version="1.1" xmlns="http://www.w3.org/2000/svg"><path d="M493.333333 261.76h37.333334v79.36h-37.333334z" fill="#0985F6" /><path d="M522.666667 269.76v63.36h-21.333334V269.76h21.333334m8-8h-37.333334V341.333333h37.333334V261.76z" fill="#006FC1" /><path d="M267.637333 350.997333l29.616-22.725333 48.309334 62.96-29.616 22.725333z" fill="#23B8BA" /><path d="M295.84 339.466667l38.56 50.24-16.96 13.013333-38.56-50.24 16.96-13.013333m1.44-11.2l-29.6 22.72 48.32 62.933333 29.6-22.72-48.32-62.933333z" fill="#14A59E" /><path d="M141.829333 560.405333l9.658667-36.064 76.656 20.538667-9.658667 36.064z" fill="#23B8BA" /><path d="M157.12 534.133333l61.226667 16.373334-5.333334 20.64L151.626667 554.666667l5.333333-20.586667m-5.493333-9.76l-9.653334 36.053333L218.666667 580.96l9.653333-36.106667-76.853333-20.533333z" fill="#14A59E" /><path d="M708.069333 413.925333l-29.616-22.725333 48.309334-62.96 29.621333 22.725333z" fill="#FFA800" /><path d="M728.266667 339.466667l16.906666 13.013333-38.56 50.24-16.906666-13.013333 38.56-50.24m-1.493334-11.2l-48.32 62.933333 29.653334 22.72 48.32-62.933333-29.653334-22.72z" fill="#E29103" /><path d="M805.648 580.949333l-9.664-36.058666 76.656-20.538667 9.664 36.058667z" fill="#FFA800" /><path d="M866.933333 534.133333l5.333334 20.586667-61.226667 16.426667-5.333333-20.64 61.173333-16.373334m5.653333-9.813333l-76.64 20.533333 9.653334 36.106667 76.64-20.586667-9.653334-36.053333z" fill="#E29103" /><path d="M512 581.013333h-0.64l-43.84-152.853333-35.893333 10.293333 44.426666 154.666667a58.666667 58.666667 0 1 0 35.946667-12.106667z" fill="#0985F6" /><path d="M462.026667 438.08l41.653333 145.173333 1.653333 5.866667H512a50.773333 50.773333 0 1 1-31.2 10.666667l4.266667-3.306667-1.493334-5.333333-42.186666-147.2 20.48-5.866667m5.333333-9.92l-35.893333 10.293333 44.426666 154.666667a58.666667 58.666667 0 1 0 36.266667-12.106667h-0.64l-43.84-152.853333z" fill="#006FC1" /><path d="M512 170.666667a469.333333 469.333333 0 0 0-418.133333 682.666666h836.266666A469.333333 469.333333 0 0 0 512 170.666667zM135.253333 789.333333a405.333333 405.333333 0 1 1 753.493334 0z" fill="#0985F6" /><path d="M512 178.666667a461.813333 461.813333 0 0 1 461.333333 461.333333 455.893333 455.893333 0 0 1-48 205.333333h-826.666666a455.893333 455.893333 0 0 1-48-205.333333A461.813333 461.813333 0 0 1 512 178.666667m-382.133333 618.666666h764.266666l2.026667-5.013333A413.28 413.28 0 1 0 98.666667 640a409.92 409.92 0 0 0 29.333333 152.32l2.026667 5.013333M512 170.666667a469.333333 469.333333 0 0 0-418.133333 682.666666h836.266666A469.333333 469.333333 0 0 0 512 170.666667zM135.253333 789.333333a405.333333 405.333333 0 1 1 753.493334 0z" fill="#006FC1" /></svg>