<?xml version="1.0" standalone="no"?><!DOCTYPE svg PUBLIC "-//W3C//DTD SVG 1.1//EN" "http://www.w3.org/Graphics/SVG/1.1/DTD/svg11.dtd"><svg class="icon" width="200px" height="200.00px" viewBox="0 0 1024 1024" version="1.1" xmlns="http://www.w3.org/2000/svg"><path d="M944 208v608H80V208zM42.666667 170.666667v682.666666h938.666666V170.666667z" fill="#0985F6" /><path d="M973.333333 178.666667v666.666666H50.666667v-666.666666h922.666666m-901.333333 645.333333h880v-624h-880v624M981.333333 170.666667H42.666667v682.666666h938.666666V170.666667zM80 816V208h864v608z" fill="#006FC1" /><path d="M882.506667 600.373333H141.493333v-37.706666l105.866667-25.226667 105.866667 13.44 105.866666-64.746667 105.813334 61.12 105.866666-150.986666 105.866667 34.08 105.866667-101.12v271.146666z" fill="#23B8BA" /><path d="M871.84 354.186667v235.52H152.16v-18.613334l96-22.826666L352 561.44l3.733333 0.48 3.2-1.92 100.266667-61.44 100.373333 57.973333 8.48 4.853334 5.333334-8 101.333333-144.533334L773.333333 440.48l6.026667 1.92 4.586667-4.373333 87.84-83.84m10.666666-24.96l-105.866666 101.333333-105.813334-34.293333-105.866666 150.986666-105.813334-61.12-105.866666 64.746667-105.866667-13.44-105.866667 25.226667v37.706666h741.013334V329.226667z" fill="#14A59E" /><path d="M149.653333 411.306667l16-64h-24.16l4.64-18.88h7.573334c14.986667 0 19.946667-4.64 26.133333-14.826667h20.586667L176 411.306667zM209.973333 384.693333h26.666667l-6.933333 27.893334c-3.733333 15.306667-15.146667 23.36-32.32 23.36l2.933333-12.106667a13.813333 13.813333 0 0 0 14.346667-11.146667l0.32-1.386666h-11.626667zM334.346667 389.333333l-5.333334 21.813334H251.893333l4.64-18.88 32.48-21.92c16.426667-11.146667 26.933333-18.293333 26.933334-26.666667 0-5.333333-3.093333-9.28-10.186667-9.28-9.013333 0-14.24 8.96-14.4 19.466667l-25.706667-3.413334c1.28-23.2 17.013333-38.346667 42.4-38.346666 21.333333 0 34.506667 12.693333 34.506667 28.48 0 19.786667-13.28 28.16-31.413333 39.733333L296.746667 389.333333zM391.413333 372.16c-2.026667 0-5.333333 0.32-8.213333 0.64l4.96-19.626667a44 44 0 0 0 8.053333 1.066667c7.573333 0 13.92-3.573333 13.92-12.053333a9.44 9.44 0 0 0-10.666666-8.96c-8.053333 0-13.013333 4.746667-15.466667 14.186666l-24.906667-4.64a42.293333 42.293333 0 0 1 43.146667-30.773333c22.773333 0 33.76 11.786667 33.76 25.866667 0 15.306667-10.666667 22.56-22.293333 24.906666a18.72 18.72 0 0 1 14.826666 18.4c0 21.653333-20.426667 32-40.693333 32-26.666667 0-38.933333-12.96-37.866667-31.093333l25.493334-1.866667a11.093333 11.093333 0 0 0 12.533333 11.946667c7.466667 0 13.92-3.413333 13.92-11.946667 0-4.8-2.933333-8.053333-10.506667-8.053333zM524.746667 368.64h16.586666l-5.333333 22.133333h-16.64l-5.333333 20.533334h-25.013334l5.333334-20.533334h-49.066667l6.346667-25.546666 54.026666-51.36h32.906667z m-52.586667 0h27.36l8.533333-34.026667z" fill="#FFA800" /><path d="M195.306667 317.866667l-22.293334 89.44H154.666667l14.666666-58.666667 1.226667-4.96h-24l2.72-10.666667h4.426667c15.52 0 21.92-4.8 28.373333-14.826666h13.226667m5.333333-4h-20.8c-6.186667 10.186667-11.146667 14.826667-26.133333 14.826666H146.133333l-4.64 18.88h24.106667l-16 64h26.666667l24.266666-97.44zM231.466667 388.693333l-5.706667 22.933334A25.066667 25.066667 0 0 1 202.666667 431.626667l1.013333-4.053334A17.546667 17.546667 0 0 0 218.666667 413.6l0.266666-1.386667 1.12-4.906666h-11.573333l4.853333-18.613334h18.133334m5.333333-4h-26.666667l-6.613333 26.666667h11.413333l-0.32 1.386667a13.813333 13.813333 0 0 1-14.346666 11.146666L197.333333 435.946667c17.173333 0 28.586667-8.053333 32.32-23.36l6.933334-27.893334zM308.053333 316c17.973333 0 30.506667 10.08 30.506667 24.48 0 17.44-11.573333 24.853333-29.066667 36.106667h-0.48l-14.4 9.28-11.413333 7.626666h46.026667l-3.413334 13.813334h-68.8l3.04-12.64 31.413334-21.333334c17.12-11.306667 28.533333-19.04 28.533333-29.76a12.746667 12.746667 0 0 0-14.186667-13.28c-9.44 0-16.48 7.573333-18.08 18.986667l-17.653333-2.346667c2.506667-19.466667 16.48-30.933333 38.026667-30.933333m0-4c-25.386667 0-41.12 15.146667-42.4 38.346667l25.706666 3.413333c0-10.666667 5.333333-19.466667 14.4-19.466667 7.093333 0 10.186667 3.84 10.186667 9.28 0 8.64-10.666667 16-26.933333 26.666667l-32.533334 22.186667-4.64 18.88h77.066667l5.333333-21.813334h-37.333333l14.4-9.28c18.133333-11.573333 31.413333-19.946667 31.413333-39.733333 0-16-13.013333-28.48-34.506666-28.48zM402.24 316c18.346667 0 29.76 8.373333 29.76 21.866667s-10.666667 19.2-19.093333 20.96l-16 3.146666 15.52 4.586667a14.773333 14.773333 0 0 1 11.946666 14.613333c0 19.253333-18.986667 28-36.693333 28-12.746667 0-22.506667-3.146667-28.16-9.173333a21.973333 21.973333 0 0 1-5.76-14.186667l17.866667-1.28a13.813333 13.813333 0 0 0 3.466666 6.72 17.12 17.12 0 0 0 12.746667 4.906667c10.666667 0 17.92-6.24 17.92-16 0-2.826667-1.013333-12.053333-14.506667-12.053333h-2.933333l2.666667-10.666667a36.693333 36.693333 0 0 0 5.333333 0.426667c10.666667 0 17.92-6.293333 17.92-16a13.386667 13.386667 0 0 0-14.666667-12.96 18.453333 18.453333 0 0 0-18.24 13.6l-16.8-3.093334c6.133333-15.146667 19.733333-23.733333 37.813334-23.733333m0-4a42.293333 42.293333 0 0 0-43.146667 30.773333l24.906667 4.64c2.453333-9.44 7.413333-14.186667 15.466666-14.186666a9.44 9.44 0 0 1 10.666667 8.96c0 8.48-6.346667 12.053333-13.92 12.053333a44 44 0 0 1-8.053333-1.066667l-4.96 19.626667c2.826667-0.32 6.186667-0.64 8.213333-0.64 7.573333 0 10.666667 3.253333 10.666667 8.053333 0 8.533333-6.453333 11.946667-13.92 11.946667a11.093333 11.093333 0 0 1-12.533334-11.946667l-25.493333 1.866667c-1.066667 18.133333 11.306667 31.093333 37.866667 31.093333 20.32 0 40.693333-10.346667 40.693333-32A18.72 18.72 0 0 0 413.706667 362.666667c11.573333-2.346667 22.293333-9.6 22.293333-24.906667 0-14.08-10.986667-25.866667-33.76-25.866667zM533.333333 317.866667l-12.426666 49.813333-1.226667 4.96h16.533333l-3.52 14.133333h-16.48l-0.746666 3.04-4.373334 17.493334h-16.96l3.893334-15.573334 1.226666-4.96h-49.066666l4.853333-19.466666 52-49.44H533.333333M462.133333 372.64h40.533334l0.746666-3.04L512 335.573333l3.306667-13.333333-9.973334 9.44L469.333333 365.706667l-7.253333 6.933333m76.213333-58.666667h-32.853333l-54.026667 51.253334-6.346666 25.546666h49.066666l-5.333333 20.533334h25.226667l5.333333-20.533334h16.373333l5.333334-22.133333h-16.32l13.6-54.773333z m-30.293333 20.746667l-8.533333 34.026667h-27.306667l35.893333-34.026667z" fill="#E29103" /><path d="M141.493333 666.186667h378.72v37.333333H141.493333z" fill="#23B8BA" /><path d="M512 674.186667v21.333333H149.333333v-21.333333h362.666667m8-8h-378.666667v37.333333h378.666667v-37.333333z" fill="#14A59E" /><path d="M141.493333 720.213333h560.16v37.333334H141.493333z" fill="#23B8BA" /><path d="M693.6 728.213333v21.333334H149.333333v-21.333334h544m8-8h-560v37.333334h560v-37.333334z" fill="#14A59E" /><path d="M831.786667 666.186667l-29.386667 37.333333h58.826667l-29.44-37.333333zM831.786667 757.546667l-29.386667-37.333334h58.826667l-29.44 37.333334z" fill="#23B8BA" /><path d="M832 674.773333l18.453333 23.413334h-36.853333l18.4-23.413334m0-8.586666l-29.386667 37.333333h58.666667l-29.44-37.333333zM850.24 725.333333l-18.24 23.626667-18.613333-23.626667h36.853333m10.986667-5.333333h-58.666667l29.386667 37.333333 29.44-37.333333z" fill="#14A59E" /></svg>